<?xml version="1.0" encoding="utf-8"?>
<!-- Generator: Adobe Illustrator 23.0.1, SVG Export Plug-In . SVG Version: 6.00 Build 0)  -->
<svg preserveAspectRatio="xMinYMin meet" version="1.1" id="Layer_1" xmlns="http://www.w3.org/2000/svg" xmlns:xlink="http://www.w3.org/1999/xlink" x="0px" y="0px"
	 viewBox="0 0 199.2 113.6" style="enable-background:new 0 0 199.2 113.6;" xml:space="preserve">
<path d="M109,110c-0.5,0-0.9,0.4-0.9,0.8c0,0.5,0.4,0.8,1.1,0.8c0.2,0,0.4-0.1,0.5-0.2c0.2-0.2,0.3-0.5,0.2-0.7
	C110,110.5,109.4,110,109,110z"/>
<path d="M103.9,110c-0.4,0-0.9,0.5-0.9,0.9c0,0.3,0.1,0.5,0.3,0.7c0.1,0.1,0.3,0.1,0.5,0.1c0.8,0,1.1-0.2,1.2-0.8
	C104.8,110.4,104.4,110,103.9,110z"/>
<path d="M99,110c-0.5,0-0.9,0.4-1,0.9c0,0.5,0.3,0.8,1.2,0.8c0.2,0,0.3,0,0.5-0.1c0.2-0.2,0.3-0.4,0.3-0.7
	C99.9,110.5,99.4,110.1,99,110z"/>
<path d="M129.1,100c-0.5,0-0.9,0.3-1,0.8c0,0.5,0.3,0.8,0.8,0.9h0.1c0.7,0,1-0.3,1-0.9C130,100.4,129.6,100,129.1,100z"/>
<path d="M124.1,100c-0.4,0-1,0.4-1,0.8c0,0.3,0.1,0.5,0.2,0.7c0.2,0.2,0.5,0.2,0.7,0.2s0.6,0,0.7-0.2c0.2-0.2,0.3-0.5,0.3-0.7
	C125.1,100.4,124.6,100,124.1,100z"/>
<path d="M119,100c-0.5,0-0.9,0.4-0.9,0.8c0,0.5,0.4,0.8,1.1,0.8c0.2,0,0.4-0.1,0.5-0.2c0.2-0.2,0.3-0.5,0.2-0.7
	C120,100.4,119.5,100,119,100z"/>
<path d="M114,100c-0.4,0-1,0.4-1,0.8c0,0.3,0.1,0.5,0.2,0.7c0.1,0.1,0.4,0.1,0.4,0.2c0.9,0,1.2-0.3,1.2-0.8
	C114.9,100.4,114.5,100,114,100z"/>
<path d="M109,100c-0.4,0-1,0.4-1,0.8c0,0.3,0.1,0.5,0.2,0.7c0.1,0.1,0.4,0.1,0.4,0.1c0.9,0,1.2-0.3,1.2-0.8
	C109.8,100.4,109.5,100,109,100z"/>
<path d="M104.6,101.5c0.2-0.2,0.3-0.5,0.3-0.7c0-0.4-0.5-0.8-0.9-0.9s-1,0.4-1,0.8c0,0.3,0.1,0.5,0.2,0.7c0.2,0.2,0.5,0.2,0.7,0.2
	S104.5,101.7,104.6,101.5z"/>
<path d="M98.8,100c-0.4,0-0.9,0.5-0.9,0.9c0,0.3,0.1,0.5,0.3,0.7c0.1,0.1,0.3,0.1,0.5,0.1c0.8,0,1.1-0.2,1.2-0.8
	C99.8,100.4,99.4,100,98.8,100z"/>
<path d="M93.9,100c-0.5,0-0.9,0.4-1,0.9c0,0.5,0.3,0.8,1.2,0.8c0,0,0.3,0,0.5-0.1c0.2-0.2,0.3-0.4,0.3-0.7
	C94.9,100.5,94.4,100,93.9,100z"/>
<path d="M88.8,100c-0.5,0-0.9,0.4-0.9,0.8c0,0.5,0.4,0.8,1.1,0.8c0.2,0,0.4-0.1,0.5-0.2c0.2-0.2,0.3-0.5,0.2-0.7
	C89.8,100.4,89.3,100,88.8,100z"/>
<path d="M83.7,100c-0.4,0-1,0.5-0.9,0.9c0,0.3,0.1,0.5,0.3,0.7c0.1,0.1,0.4,0.1,0.7,0.2c0.2,0,0.5-0.1,0.7-0.2
	c0.2-0.2,0.2-0.5,0.2-0.7C84.7,100.4,84.2,100,83.7,100z"/>
<path d="M78.7,100c-0.5,0-0.9,0.4-0.9,0.9s0.3,0.8,1.2,0.8c0.2,0,0.4,0,0.5-0.2c0.2-0.2,0.3-0.5,0.2-0.7
	C79.7,100.4,79.2,100,78.7,100z"/>
<path d="M73.7,100c-0.5,0-0.9,0.3-1,0.8c0,0.5,0.3,0.8,0.8,0.9h0.1c0.7,0,1-0.3,1-0.9C74.5,100.4,74.2,100,73.7,100z"/>
<path d="M68.6,100c-0.4,0-1,0.5-0.9,0.9c0,0.3,0.1,0.5,0.3,0.7c0.1,0.1,0.4,0.1,0.7,0.2s0.5-0.1,0.7-0.2c0.2-0.2,0.2-0.5,0.2-0.7
	C69.6,100.4,69.1,100,68.6,100z"/>
<path d="M63.6,100c-0.4,0-1,0.4-1,0.8c0,0.3,0.1,0.5,0.2,0.7c0.1,0.1,0.4,0.1,0.4,0.1c0.9,0,1.2-0.3,1.2-0.9
	C64.5,100.4,64.1,100,63.6,100z"/>
<path d="M58.5,100c-0.4,0-1,0.5-0.9,0.9c0,0.3,0.1,0.5,0.3,0.7c0.1,0.1,0.4,0.1,0.5,0.1c0.9,0,1.1-0.2,1.2-0.8
	C59.5,100.4,59,100,58.5,100z"/>
<path d="M159.4,89.9c-0.5,0-0.9,0.4-0.9,0.8c0,0.5,0.4,0.8,1.1,0.8c0.2,0,0.4-0.1,0.5-0.2c0.2-0.2,0.3-0.5,0.2-0.7
	C160.4,90.3,159.8,89.9,159.4,89.9z"/>
<path d="M154.4,89.9c-0.5,0-0.9,0.4-1,0.9c0,0.4,0.3,0.8,0.8,0.8c0,0,0,0,0.1,0c0.8,0,1-0.2,1.1-0.8
	C155.3,90.4,154.8,89.9,154.4,89.9z"/>
<path d="M149.3,89.9c-0.5,0-0.9,0.4-0.9,0.9s0.4,0.8,1.1,0.8c0.2,0,0.4,0,0.5-0.2c0.2-0.2,0.3-0.5,0.2-0.7
	C150.3,90.3,149.7,89.9,149.3,89.9z"/>
<path d="M144.3,89.9c-0.5,0-0.9,0.3-1,0.8c0,0.5,0.3,0.8,0.8,0.9h0.1c0.7,0,1-0.3,1-0.9C145.1,90.3,144.7,89.9,144.3,89.9z"/>
<path d="M139.2,89.9c-0.4,0-1,0.5-0.9,0.9c0,0.3,0.1,0.5,0.3,0.7c0.1,0.1,0.4,0.1,0.5,0.1c0.9,0,1.1-0.2,1.2-0.8
	C140.1,90.3,139.7,89.9,139.2,89.9z"/>
<path d="M134.2,89.9c-0.4,0-1,0.4-0.9,0.8c0,0.3,0.1,0.5,0.2,0.7c0.1,0.1,0.4,0.1,0.4,0.1c0.9,0,1.2-0.3,1.2-0.9
	C135.1,90.2,134.7,89.9,134.2,89.9z"/>
<path d="M129.8,91.5c0.2-0.2,0.3-0.4,0.3-0.7c0.1-0.4-0.4-0.9-0.9-0.9s-0.9,0.4-1,0.9c0,0.6,0.3,0.8,1.2,0.8
	C129.4,91.6,129.7,91.6,129.8,91.5z"/>
<path d="M124.3,91.6c0.2,0,0.4-0.1,0.5-0.2c0.2-0.2,0.3-0.5,0.2-0.7c0-0.4-0.5-0.8-1-0.8s-0.9,0.4-0.9,0.8
	C123.1,91.2,123.5,91.6,124.3,91.6z"/>
<path d="M119.1,89.9c-0.5,0-0.9,0.4-1,0.9c0,0.6,0.3,0.8,1.2,0.8c0,0,0.3,0,0.5-0.1c0.2-0.2,0.3-0.4,0.3-0.7
	C120.1,90.4,119.6,89.9,119.1,89.9z"/>
<path d="M114,89.9c-0.4,0-1,0.5-0.9,0.9c0,0.3,0.1,0.5,0.3,0.7c0.1,0.1,0.4,0.1,0.7,0.2c0.2,0,0.5-0.1,0.7-0.2
	c0.2-0.2,0.2-0.5,0.2-0.7C115,90.3,114.4,89.9,114,89.9z"/>
<path d="M109.2,91.6c0.2,0,0.3,0,0.5-0.1c0.2-0.2,0.3-0.4,0.3-0.7c0.1-0.4-0.4-0.9-0.9-0.9s-0.9,0.4-1,0.9
	C108.1,91.3,108.4,91.6,109.2,91.6z"/>
<path d="M104,89.9c-0.4,0-1,0.4-1,0.8c0,0.3,0.1,0.5,0.2,0.7c0.1,0.1,0.4,0.1,0.4,0.2c0.9,0,1.2-0.3,1.2-0.8
	C104.8,90.3,104.4,89.9,104,89.9z"/>
<path d="M99.6,91.4c0.2-0.2,0.3-0.5,0.3-0.7c0.1-0.4-0.5-0.8-0.9-0.9s-1,0.4-1,0.8c0,0.3,0.1,0.5,0.2,0.7c0.2,0.1,0.4,0.2,0.7,0.2
	C99.2,91.6,99.5,91.6,99.6,91.4z"/>
<path d="M93.9,89.9c-0.4,0-1,0.4-1,0.8c0,0.3,0.1,0.5,0.2,0.7c0.1,0.1,0.4,0.1,0.4,0.1c0.9,0,1.2-0.3,1.2-0.8
	C94.7,90.3,94.3,89.9,93.9,89.9z"/>
<path d="M88.8,89.9c-0.4,0-1,0.5-0.9,0.9c0,0.3,0.1,0.5,0.3,0.7c0.1,0.1,0.3,0.1,0.5,0.1c0.9,0,1.1-0.2,1.2-0.8
	C89.7,90.3,89.3,89.9,88.8,89.9z"/>
<path d="M83.7,89.9c-0.4,0-1,0.5-0.9,0.9c0,0.3,0.1,0.5,0.3,0.7c0.1,0.1,0.3,0.1,0.5,0.1c0.9,0,1.1-0.2,1.2-0.8
	C84.7,90.3,84.2,89.9,83.7,89.9z"/>
<path d="M78.8,89.9c-0.5,0-0.9,0.4-1,0.9c0.1,0.6,0.3,0.8,1.2,0.8c0.2,0,0.3,0,0.5-0.1c0.2-0.2,0.3-0.4,0.3-0.7
	C79.7,90.4,79.2,89.9,78.8,89.9z"/>
<path d="M73.9,91.6c0.2,0,0.3,0,0.5-0.1c0.2-0.2,0.3-0.4,0.3-0.7c0.1-0.4-0.4-0.9-0.9-0.9s-0.9,0.4-1,0.9
	C72.8,91.3,73.1,91.6,73.9,91.6z"/>
<path d="M68.6,89.9c-0.5,0-0.9,0.4-0.9,0.8c0,0.5,0.3,0.8,1.2,0.8c0.2,0,0.4-0.1,0.5-0.2c0.2-0.2,0.3-0.5,0.2-0.7
	C69.6,90.3,69.1,89.9,68.6,89.9z"/>
<path d="M63.7,91.6c0.2,0,0.5-0.1,0.7-0.2c0.2-0.2,0.2-0.5,0.2-0.7c0-0.4-0.6-0.8-1-0.8c-0.4,0-1,0.5-0.9,0.9c0,0.3,0.1,0.5,0.3,0.7
	C63.1,91.6,63.4,91.6,63.7,91.6z"/>
<path d="M58.8,91.6c0.2,0,0.4-0.1,0.5-0.2c0.2-0.2,0.3-0.5,0.2-0.7c0-0.4-0.5-0.8-1-0.8s-0.9,0.4-0.9,0.8
	C57.6,91.2,58,91.6,58.8,91.6z"/>
<path d="M53.3,91.6c0.9,0,1.2-0.3,1.2-0.8C54.4,90.3,54,90,53.6,90s-1,0.4-1,0.8c0,0.3,0.1,0.5,0.2,0.7C53,91.6,53.2,91.6,53.3,91.6
	z"/>
<path d="M48.5,89.9c-0.4,0-1,0.5-0.9,0.9c0,0.3,0.1,0.5,0.3,0.7c0.1,0.1,0.4,0.1,0.5,0.1c0.9,0,1.1-0.2,1.2-0.8
	C49.4,90.3,49,89.9,48.5,89.9z"/>
<path d="M184.6,79.8c-0.4,0-1,0.4-1,0.8c0,0.3,0.1,0.5,0.2,0.7c0.1,0.1,0.4,0.1,0.4,0.1c0.9,0,1.2-0.3,1.2-0.8
	C185.4,80.2,185.1,79.8,184.6,79.8z"/>
<path d="M179.6,79.8c-0.4,0-1,0.4-1,0.8c0,0.3,0.1,0.5,0.2,0.7c0.1,0.1,0.4,0.1,0.4,0.1c0.9,0,1.2-0.3,1.2-0.8
	C180.4,80.2,180,79.8,179.6,79.8z"/>
<path d="M174.5,79.8c-0.5,0-0.9,0.4-0.9,0.8c0,0.5,0.4,0.8,1.1,0.8c0.2,0,0.4-0.1,0.5-0.2c0.2-0.2,0.3-0.5,0.2-0.7
	C175.5,80.2,174.9,79.8,174.5,79.8z"/>
<path d="M169.4,79.8c-0.5,0-0.9,0.4-0.9,0.9s0.4,0.8,1.1,0.8c0.2,0,0.4,0,0.5-0.2c0.2-0.2,0.3-0.5,0.2-0.7
	C170.4,80.2,169.9,79.8,169.4,79.8z"/>
<path d="M164.4,79.8c-0.5,0-0.9,0.3-1,0.8c0,0.5,0.4,0.8,0.8,0.9h0.1c0.7,0,1-0.3,1-0.9C165.2,80.2,164.9,79.8,164.4,79.8z"/>
<path d="M159.4,79.8c-0.5,0-0.9,0.3-1,0.8c0,0.5,0.4,0.8,0.8,0.9h0.1c0.7,0,1-0.3,1-0.9C160.2,80.2,159.9,79.8,159.4,79.8z"/>
<path d="M155,81.4c0.2-0.2,0.3-0.4,0.3-0.7c0.1-0.4-0.4-0.9-0.9-0.9s-0.9,0.4-1,0.9c0,0.5,0.3,0.8,1.2,0.8
	C154.7,81.5,154.9,81.5,155,81.4z"/>
<path d="M149.3,79.8c-0.5,0-0.9,0.4-0.9,0.9s0.4,0.8,1.1,0.8c0.2,0,0.4,0,0.5-0.2c0.2-0.2,0.3-0.5,0.2-0.7
	C150.3,80.2,149.7,79.8,149.3,79.8z"/>
<path d="M144.3,79.8c-0.5,0-0.9,0.4-1,0.9c0,0.4,0.3,0.8,0.8,0.8c0,0,0,0,0.1,0c0.8,0,1-0.2,1.1-0.8
	C145.3,80.3,144.8,79.8,144.3,79.8z"/>
<path d="M139.4,81.5c0.2,0,0.4-0.1,0.5-0.2c0.2-0.2,0.3-0.5,0.2-0.7c0-0.4-0.5-0.8-1-0.8s-0.9,0.4-0.9,0.8
	C138.3,81.2,138.6,81.5,139.4,81.5z"/>
<path d="M134.2,79.8c-0.4,0-1,0.4-1,0.8c0,0.3,0.1,0.5,0.2,0.7c0.1,0.1,0.4,0.1,0.4,0.2c0.9,0,1.2-0.3,1.2-0.8
	C135,80.2,134.7,79.8,134.2,79.8z"/>
<path d="M129.2,79.8c-0.4,0-1,0.4-1,0.8c0,0.3,0.1,0.5,0.2,0.7c0.1,0.1,0.4,0.1,0.4,0.1c0.9,0,1.2-0.3,1.2-0.8
	C130,80.2,129.6,79.8,129.2,79.8z"/>
<path d="M124.1,81.5c0.2-0.1,0.5-0.1,0.7-0.2c0.2-0.2,0.2-0.5,0.2-0.7c0-0.4-0.6-0.8-1-0.8s-1,0.5-0.9,0.9c0,0.3,0.1,0.5,0.3,0.7
	C123.5,81.5,123.8,81.5,124.1,81.5z"/>
<path d="M119.3,81.5c0.2,0,0.4-0.1,0.5-0.2c0.2-0.2,0.3-0.5,0.2-0.7c0-0.4-0.5-0.8-1-0.8s-0.9,0.4-0.9,0.8
	C118.1,81.2,118.5,81.5,119.3,81.5z"/>
<path d="M114.2,81.5c0.2,0,0.3,0,0.5-0.1c0.2-0.2,0.3-0.4,0.3-0.7c0.1-0.4-0.5-0.9-0.9-0.9c-0.5,0-0.9,0.4-1,0.9
	C113.1,81.3,113.4,81.5,114.2,81.5z"/>
<path d="M109.2,81.5c0.2,0,0.4,0,0.5-0.2c0.2-0.2,0.3-0.5,0.2-0.7c0-0.4-0.5-0.8-1-0.8s-0.9,0.4-0.9,0.9S108.4,81.5,109.2,81.5z"/>
<path d="M103.9,79.8c-0.5,0-0.9,0.3-1,0.8c0,0.5,0.3,0.8,0.8,0.9h0.1c0.7,0,1-0.3,1-0.9C104.8,80.2,104.4,79.8,103.9,79.8z"/>
<path d="M98.9,79.8c-0.5,0-0.9,0.3-1,0.8c0,0.5,0.4,0.8,0.8,0.9h0.1c0.7,0,1-0.3,1-0.9C99.7,80.2,99.4,79.8,98.9,79.8z"/>
<path d="M93.9,79.8c-0.4,0-1,0.4-1,0.8c0,0.3,0.1,0.5,0.2,0.7c0.1,0.1,0.4,0.1,0.4,0.1c0.9,0,1.2-0.3,1.2-0.9
	C94.7,80.2,94.3,79.8,93.9,79.8z"/>
<path d="M88.8,79.8c-0.5,0-0.9,0.3-1,0.8c0,0.5,0.3,0.8,0.8,0.9h0.1c0.7,0,1-0.3,1-0.9C89.6,80.2,89.3,79.8,88.8,79.8z"/>
<path d="M84.5,81.4c0.2-0.2,0.3-0.5,0.3-0.7c0-0.4-0.5-0.8-0.9-0.9s-1,0.4-1,0.8c0,0.3,0.1,0.5,0.2,0.7c0.2,0.2,0.5,0.2,0.7,0.2
	S84.3,81.5,84.5,81.4z"/>
<path d="M78.9,81.5c0.2,0,0.4-0.1,0.5-0.2c0.2-0.2,0.3-0.5,0.2-0.7c0-0.4-0.5-0.8-1-0.8s-0.9,0.4-0.9,0.8
	C77.8,81.2,78.1,81.5,78.9,81.5z"/>
<path d="M73.6,79.8c-0.4,0-1,0.5-0.9,0.9c0,0.3,0.1,0.5,0.3,0.7c0.1,0.1,0.3,0.1,0.5,0.1c0.9,0,1.1-0.2,1.2-0.8
	C74.6,80.2,74.2,79.8,73.6,79.8z"/>
<path d="M68.7,79.8c-0.4,0-1,0.4-1,0.8c0,0.3,0.1,0.5,0.2,0.7c0.1,0.1,0.4,0.1,0.4,0.2c0.9,0,1.2-0.3,1.2-0.8S69.1,79.8,68.7,79.8z"
	/>
<path d="M63.6,79.8c-0.5,0-0.9,0.3-1,0.8c0,0.5,0.3,0.8,0.8,0.9h0.1c0.7,0,1-0.3,1-0.9C64.4,80.2,64.1,79.8,63.6,79.8z"/>
<path d="M59.3,81.3c0.2-0.2,0.2-0.5,0.2-0.7c0-0.4-0.6-0.8-1-0.8s-1,0.5-0.9,0.9c0,0.3,0.1,0.5,0.3,0.7c0.1,0.1,0.4,0.1,0.7,0.2
	S59.1,81.5,59.3,81.3z"/>
<path d="M53.7,81.5c0.2,0,0.4-0.1,0.5-0.2c0.2-0.2,0.3-0.5,0.2-0.7c0-0.4-0.5-0.8-1-0.8s-0.9,0.4-0.9,0.8
	C52.6,81.2,52.9,81.5,53.7,81.5z"/>
<path d="M48.5,79.8c-0.5,0-0.9,0.3-1,0.8c0,0.5,0.4,0.8,0.8,0.9h0.1c0.7,0,1-0.3,1-0.9C49.3,80.2,49,79.8,48.5,79.8z"/>
<path d="M43.4,79.8c-0.5,0-0.9,0.4-0.9,0.8c0,0.5,0.3,0.8,1.2,0.8c0.2,0,0.4-0.1,0.5-0.2c0.2-0.2,0.3-0.5,0.2-0.7
	C44.4,80.2,43.9,79.8,43.4,79.8z"/>
<path d="M194.6,69.7c-0.5,0-0.9,0.4-0.9,0.8c0,0.5,0.4,0.8,1.1,0.8c0.2,0,0.4-0.1,0.5-0.2c0.2-0.2,0.3-0.5,0.2-0.7
	C195.6,70.1,195.1,69.7,194.6,69.7z"/>
<path d="M189.6,69.7c-0.4,0-1,0.4-1,0.8c0,0.3,0.1,0.5,0.2,0.7c0.1,0.1,0.4,0.1,0.4,0.2c0.9,0,1.2-0.3,1.2-0.8
	C190.5,70.1,190.1,69.8,189.6,69.7z"/>
<path d="M184.6,69.7c-0.5,0-0.9,0.3-1,0.8c0,0.5,0.4,0.8,0.8,0.9h0.1c0.7,0,1-0.3,1-0.8C185.4,70.1,185,69.8,184.6,69.7z"/>
<path d="M179.5,69.7c-0.5,0-0.9,0.3-1,0.8c0,0.5,0.3,0.8,0.8,0.9h0.1c0.7,0,1-0.3,1-0.9C180.4,70.1,180,69.8,179.5,69.7z"/>
<path d="M175.2,71.2c0.2-0.2,0.3-0.5,0.2-0.7c0-0.4-0.5-0.8-1-0.8s-0.9,0.4-0.9,0.8c0,0.5,0.4,0.8,1.1,0.8
	C174.9,71.4,175,71.4,175.2,71.2z"/>
<path d="M169.5,69.7c-0.5,0-0.9,0.4-1,0.9c0,0.4,0.3,0.8,0.8,0.8c0,0,0,0,0.1,0c0.8,0,1-0.2,1.1-0.8C170.5,70.2,170,69.8,169.5,69.7
	z"/>
<path d="M165.1,71.2c0.2-0.2,0.2-0.5,0.2-0.7c0-0.4-0.6-0.8-1-0.8s-1,0.5-0.9,0.9c0,0.3,0.1,0.5,0.3,0.7c0.1,0.1,0.4,0.1,0.7,0.2
	S165,71.4,165.1,71.2z"/>
<path d="M159.2,71.4c0.8,0,1.1-0.2,1.2-0.8c-0.1-0.5-0.5-0.9-1-0.9c-0.4,0-1,0.5-0.9,0.9c0,0.3,0.1,0.5,0.3,0.7
	C158.9,71.4,159,71.4,159.2,71.4z"/>
<path d="M154.4,69.7c-0.5,0-0.9,0.4-1,0.9c0,0.4,0.3,0.8,0.8,0.8c0,0,0,0,0.1,0c0.8,0,1-0.2,1.1-0.8
	C155.3,70.2,154.8,69.8,154.4,69.7z"/>
<path d="M149.3,69.7c-0.5,0-0.9,0.4-0.9,0.8c0,0.5,0.4,0.8,1.1,0.8c0.2,0,0.4,0,0.5-0.2c0.2-0.2,0.3-0.5,0.2-0.7
	C150.3,70.1,149.7,69.7,149.3,69.7z"/>
<path d="M144.5,71.4c0.2,0,0.4-0.1,0.5-0.2c0.2-0.2,0.3-0.5,0.2-0.7c0-0.4-0.5-0.8-1-0.8s-0.9,0.4-0.9,0.8
	C143.3,71.1,143.6,71.4,144.5,71.4z"/>
<path d="M89,71.4c0,0,0.3,0,0.5-0.1c0.2-0.2,0.3-0.4,0.3-0.7c0.1-0.4-0.4-0.8-0.9-0.9c-0.5,0-0.9,0.4-1,0.9
	C87.9,71.2,88.2,71.4,89,71.4z"/>
<path d="M83.8,69.7c-0.4,0-1,0.4-1,0.8c0,0.3,0.1,0.5,0.2,0.7c0.1,0.1,0.4,0.1,0.4,0.2c0.9,0,1.2-0.3,1.2-0.8
	C84.6,70.1,84.3,69.8,83.8,69.7z"/>
<path d="M78.9,71.4c0.2,0,0.4-0.1,0.5-0.2c0.2-0.2,0.3-0.5,0.2-0.7c0-0.4-0.5-0.8-1-0.8s-0.9,0.4-0.9,0.8
	C77.8,71.1,78.1,71.4,78.9,71.4z"/>
<path d="M73.6,69.7c-0.4,0-1,0.5-0.9,0.9c0,0.3,0.1,0.5,0.3,0.7c0.1,0.1,0.3,0.1,0.5,0.1c0.9,0,1.1-0.2,1.2-0.8
	C74.6,70.1,74.2,69.7,73.6,69.7z"/>
<path d="M68.7,71.5c0.2-0.1,0.5-0.1,0.7-0.2c0.2-0.2,0.2-0.5,0.2-0.7c0-0.4-0.6-0.8-1-0.8s-1,0.5-0.9,0.9c0,0.3,0.1,0.5,0.3,0.7
	C68.1,71.4,68.4,71.4,68.7,71.5z"/>
<path d="M63.8,71.4c0.2,0,0.4-0.1,0.5-0.2c0.2-0.2,0.3-0.5,0.2-0.7c0-0.4-0.5-0.8-1-0.8c-0.5,0-0.9,0.4-0.9,0.8
	C62.7,71.1,63,71.4,63.8,71.4z"/>
<path d="M58.6,69.7c-0.5,0-0.9,0.4-1,0.9c0,0.4,0.3,0.8,0.8,0.8c0,0,0,0,0.1,0c0.8,0,1-0.2,1.1-0.8C59.6,70.2,59.1,69.8,58.6,69.7z"
	/>
<path d="M53.5,69.7c-0.4,0-1,0.5-0.9,0.9c0,0.3,0.1,0.5,0.3,0.7c0.1,0.1,0.4,0.1,0.7,0.2c0.2,0,0.5-0.1,0.7-0.2
	c0.2-0.2,0.2-0.5,0.2-0.7C54.5,70.1,53.9,69.7,53.5,69.7z"/>
<path d="M48.7,71.4c0.2,0,0.3,0,0.5-0.1c0.2-0.2,0.3-0.4,0.3-0.7c0.1-0.4-0.5-0.9-0.9-0.9c-0.5,0-0.9,0.4-1,0.9
	C47.6,71.2,47.8,71.4,48.7,71.4z"/>
<path d="M43.5,69.7c-0.5,0-0.9,0.4-1,0.9c0.1,0.6,0.3,0.8,1.2,0.8c0,0,0.3,0,0.5-0.1c0.2-0.2,0.3-0.5,0.3-0.7
	C44.5,70.2,44,69.7,43.5,69.7z"/>
<path d="M38.6,71.4c0.2,0,0.4-0.1,0.5-0.2c0.2-0.2,0.3-0.5,0.2-0.7c0-0.4-0.5-0.8-1-0.8s-0.9,0.4-0.9,0.8
	C37.5,71.1,37.8,71.4,38.6,71.4z"/>
<path d="M33.6,71.4c0.2,0,0.4-0.1,0.5-0.2c0.2-0.2,0.3-0.5,0.2-0.7c0-0.4-0.5-0.8-1-0.8s-0.9,0.4-0.9,0.8
	C32.4,71.1,32.8,71.4,33.6,71.4z"/>
<path d="M28.6,71.4c0,0,0.3,0,0.5-0.1c0.2-0.2,0.3-0.5,0.3-0.7c0.1-0.4-0.5-0.8-0.9-0.9c-0.5,0-0.9,0.4-1,0.9
	C27.4,71.2,27.7,71.4,28.6,71.4z"/>
<path d="M23.3,69.7c-0.5,0-0.9,0.4-0.9,0.8c0,0.5,0.4,0.8,1.1,0.8c0.2,0,0.4,0,0.5-0.2c0.2-0.2,0.3-0.5,0.2-0.7
	C24.3,70.1,23.7,69.7,23.3,69.7z"/>
<path d="M18.3,69.7c-0.5,0-1,0.4-1,0.8c0,0.3,0.1,0.5,0.2,0.7c0.1,0.1,0.4,0.1,0.5,0.1c0.9,0,1.2-0.3,1.2-0.8
	C19.1,70.1,18.7,69.8,18.3,69.7z"/>
<path d="M179.7,61.3c0,0,0.3,0,0.5-0.1c0.2-0.2,0.3-0.4,0.3-0.7c0.1-0.4-0.4-0.9-0.9-0.9s-0.9,0.4-1,0.9
	C178.6,61.1,178.9,61.3,179.7,61.3z"/>
<path d="M174.5,59.6c-0.4,0-1,0.4-1,0.8c0,0.3,0.1,0.5,0.2,0.7c0.1,0.2,0.4,0.2,0.4,0.2c0.9,0,1.2-0.3,1.2-0.8
	C175.4,60,175,59.7,174.5,59.6z"/>
<path d="M169.5,61.4c0.2,0,0.5-0.1,0.7-0.2c0.2-0.2,0.2-0.5,0.2-0.7c0-0.4-0.6-0.8-1-0.8s-1,0.5-0.9,0.9c0,0.3,0.1,0.5,0.3,0.7
	C168.9,61.3,169.2,61.3,169.5,61.4z"/>
<path d="M164.4,59.6c-0.5,0-0.9,0.3-1,0.8c0,0.5,0.3,0.8,0.8,0.9h0.1c0.7,0,1-0.3,1-0.9C165.2,60,164.9,59.7,164.4,59.6z"/>
<path d="M73.9,61.3c0.2,0,0.4-0.1,0.5-0.2c0.2-0.2,0.3-0.5,0.2-0.7c0-0.4-0.5-0.8-1-0.8s-0.9,0.4-0.9,0.8
	C72.7,61,73.1,61.3,73.9,61.3z"/>
<path d="M68.6,61.4c0.3-0.1,0.6,0,0.7-0.2c0.2-0.2,0.3-0.5,0.3-0.7c0.1-0.4-0.5-0.8-0.9-0.9s-1,0.4-1,0.8c0,0.3,0.1,0.5,0.2,0.7
	C68.2,61.3,68.4,61.4,68.6,61.4z"/>
<path d="M63.4,61.3c0.9,0,1.1-0.2,1.2-0.8c-0.1-0.5-0.5-0.9-1-0.9c-0.4,0-1,0.5-0.9,0.9c0,0.3,0.1,0.5,0.3,0.7
	C63.1,61.3,63.2,61.3,63.4,61.3z"/>
<path d="M58.6,59.6c-0.5,0-0.9,0.3-1,0.8c0,0.5,0.4,0.8,0.8,0.9h0.1c0.7,0,1-0.3,1-0.8C59.4,60,59,59.7,58.6,59.6z"/>
<path d="M53.5,61.3c0.7,0,1-0.3,1-0.9c-0.2-0.5-0.7-0.8-1.2-0.7c-0.3,0.1-0.6,0.4-0.7,0.7C52.6,60.9,52.9,61.2,53.5,61.3
	C53.4,61.3,53.4,61.3,53.5,61.3z"/>
<path d="M48.7,61.3c0,0,0.3,0,0.5-0.1c0.2-0.2,0.3-0.4,0.3-0.7c0.1-0.4-0.4-0.8-0.9-0.9c-0.5,0-0.9,0.4-1,0.9
	C47.6,61.1,47.9,61.3,48.7,61.3z"/>
<path d="M43.6,61.3c0.2,0,0.4-0.1,0.5-0.2c0.2-0.2,0.3-0.5,0.2-0.7c0-0.4-0.5-0.8-1-0.8s-0.9,0.4-0.9,0.8
	C42.5,61,42.8,61.3,43.6,61.3z"/>
<path d="M38.4,59.6c-0.5,0-0.9,0.3-1,0.8c0,0.5,0.4,0.8,0.8,0.9h0.1c0.7,0,1-0.3,1-0.8C39.2,60,38.9,59.7,38.4,59.6z"/>
<path d="M33.1,61.3c0.9,0,1.2-0.3,1.2-0.8c-0.1-0.5-0.5-0.8-1-0.8c-0.4,0-1,0.4-1,0.8c0,0.3,0.1,0.5,0.2,0.7
	C32.8,61.3,33.1,61.3,33.1,61.3z"/>
<path d="M114,110c-0.5,0-0.9,0.3-1,0.8c0,0.4,0.3,0.8,0.8,0.9c0.7,0,1.2-0.4,1.2-0.9C114.9,110.4,114.5,110,114,110z"/>
<path d="M121.5,105c-0.7,0-0.8,0.2-0.8,0.9s0.2,0.8,1,0.8c0.6,0,0.7-0.2,0.7-0.9S122.3,105,121.5,105z"/>
<path d="M116.5,105c-0.7,0-0.9,0.2-0.8,0.9s0.2,0.8,0.9,0.8s0.8-0.1,0.8-0.9S117.2,105,116.5,105z"/>
<path d="M111.6,105c-0.8,0-0.9,0.1-0.9,0.9s0.2,0.8,0.8,0.8s0.8-0.1,0.8-0.8S112.2,105,111.6,105z"/>
<path d="M106.5,105c-0.7,0-0.9,0.1-0.9,0.9s0.2,0.8,0.9,0.8s0.8-0.2,0.8-0.9S107.1,105,106.5,105z"/>
<path d="M101.4,105c-0.7,0-0.9,0.2-0.8,0.9s0.2,0.8,0.9,0.7s0.8-0.2,0.8-0.9S102.1,105,101.4,105z"/>
<path d="M96.4,105c-0.7,0-0.9,0.2-0.8,0.9s0.2,0.8,0.9,0.7s0.8-0.2,0.8-0.9S97,105,96.4,105z"/>
<path d="M91.4,105c-0.7,0-0.9,0.1-0.9,0.8s0.1,0.9,0.9,0.9s0.8-0.2,0.8-0.8S92,105,91.4,105z"/>
<path d="M46.1,54.6c-0.8,0-0.9,0.1-0.9,0.8s0.2,0.8,0.8,0.8s0.8-0.1,0.9-0.8S46.7,54.6,46.1,54.6z"/>
<path d="M50.9,54.6c-0.6,0-0.8,0.2-0.8,0.9s0.2,0.8,0.9,0.8s0.8-0.2,0.8-0.8S51.7,54.6,50.9,54.6z"/>
<path d="M56,56.3c0.8,0,0.9-0.1,0.9-0.8s-0.2-0.8-0.8-0.8s-0.9,0.1-0.9,0.8S55.3,56.3,56,56.3z"/>
<path d="M61.1,54.6c-0.7,0-0.8,0.2-0.8,0.8s0.1,0.9,0.9,0.9s0.8-0.2,0.8-0.9S61.8,54.6,61.1,54.6z"/>
<path d="M159.4,61.4c0.2,0,0.5,0,0.6-0.1c0.2-0.2,0.3-0.5,0.3-0.7c0.1-0.3-0.4-0.8-0.8-0.9s-1.1,0.4-1.1,0.8c0,0.3,0.1,0.6,0.3,0.8
	C158.8,61.4,159.2,61.3,159.4,61.4z"/>
<path d="M25.9,64.7c-0.8,0-0.9,0.1-0.9,0.9s0.2,0.8,0.8,0.8s0.8-0.2,0.8-0.8S26.5,64.7,25.9,64.7z"/>
<path d="M30.8,64.7c-0.6,0-0.8,0.2-0.8,0.9s0.2,0.8,0.9,0.8s0.8-0.2,0.8-0.8S31.5,64.7,30.8,64.7z"/>
<path d="M35.9,64.7c-0.7,0-0.8,0.2-0.8,1c0,0.6,0.2,0.7,0.9,0.7s0.8-0.2,0.8-0.9S36.6,64.7,35.9,64.7z"/>
<path d="M40.9,66.4c0.7,0,0.8-0.2,0.8-0.8s-0.1-0.8-0.8-0.9S40,64.8,40,65.6S40.3,66.4,40.9,66.4z"/>
<path d="M46,64.7c-0.7,0-0.9,0.2-0.8,0.9s0.2,0.8,0.9,0.8s0.8-0.2,0.8-0.9S46.6,64.7,46,64.7z"/>
<path d="M51,64.7c-0.7,0-0.8,0.2-0.8,1c0,0.6,0.2,0.7,0.9,0.7s0.8-0.2,0.8-0.9S51.7,64.7,51,64.7z"/>
<path d="M56.1,66.4c0.7,0,0.8-0.2,0.8-0.8s-0.2-0.8-0.8-0.8s-0.9,0.1-0.9,0.8S55.3,66.4,56.1,66.4z"/>
<path d="M61.1,64.7c-0.7,0-0.9,0.2-0.8,0.9s0.2,0.8,0.9,0.8s0.8-0.2,0.8-0.9S61.8,64.7,61.1,64.7z"/>
<path d="M66.2,64.7c-0.7,0-0.9,0.1-0.9,0.8s0.1,0.9,0.9,0.9s0.8-0.2,0.8-0.8S66.8,64.7,66.2,64.7z"/>
<path d="M71.2,64.7c-0.7,0-0.8,0.2-0.8,0.8s0.2,0.9,0.9,0.8s0.8-0.2,0.8-0.9S71.9,64.7,71.2,64.7z"/>
<path d="M76.1,64.7c-0.6,0-0.8,0.2-0.8,0.9s0.2,0.8,0.9,0.8s0.8-0.2,0.8-0.8S76.9,64.7,76.1,64.7z"/>
<path d="M81.2,64.7c-0.7,0-0.8,0.2-0.8,0.8s0.2,0.8,0.8,0.8s0.9-0.1,0.9-0.8S82,64.7,81.2,64.7z"/>
<path d="M151.8,64.7c-0.7,0-0.8,0.2-0.8,0.8s0.2,0.9,0.9,0.8s0.8-0.2,0.8-0.9S152.5,64.7,151.8,64.7z"/>
<path d="M156.9,64.7c-0.7,0-0.9,0.2-0.8,0.9s0.2,0.8,0.9,0.8s0.8-0.2,0.8-0.9S157.5,64.7,156.9,64.7z"/>
<path d="M161.9,64.7c-0.7,0-0.8,0.2-0.8,0.8s0.2,0.9,0.9,0.8s0.8-0.2,0.8-0.9S162.6,64.7,161.9,64.7z"/>
<path d="M167,64.7c-0.8,0-0.9,0.1-0.9,0.8s0.2,0.8,0.8,0.8s0.9-0.1,0.9-0.8S167.7,64.7,167,64.7z"/>
<path d="M172,66.4c0.7,0,0.9-0.1,0.9-0.8s-0.1-0.9-0.8-0.9s-0.9,0.1-0.9,0.8S171.3,66.4,172,66.4z"/>
<path d="M177,64.7c-0.7,0-0.9,0.2-0.8,0.9s0.2,0.8,0.9,0.8s0.8-0.2,0.8-0.9S177.7,64.7,177,64.7z"/>
<path d="M182.2,66.4c0.6,0,0.8-0.2,0.8-0.9s-0.2-0.8-0.9-0.8s-0.8,0.2-0.8,1C181.2,66.2,181.4,66.4,182.2,66.4z"/>
<path d="M187.2,64.7c-0.8,0-0.9,0.1-0.9,0.8s0.2,0.8,0.8,0.8s0.9-0.1,0.9-0.8S187.8,64.7,187.2,64.7z"/>
<path d="M192.1,64.7c-0.7,0-0.9,0.2-0.8,0.9s0.2,0.8,0.9,0.8s0.8-0.2,0.8-0.9S192.8,64.7,192.1,64.7z"/>
<path d="M93.8,71.4c0.2,0,0.6,0,0.7-0.1c0.2-0.2,0.3-0.5,0.3-0.8c0-0.4-0.6-0.8-1.1-0.8s-0.8,0.6-0.8,0.9s0.1,0.5,0.3,0.7
	C93.3,71.4,93.6,71.4,93.8,71.4z"/>
<path d="M15.7,74.8c-0.7,0-0.8,0.2-0.8,1c0,0.6,0.2,0.7,0.9,0.7c0.7,0,0.8-0.2,0.8-0.9S16.4,74.8,15.7,74.8z"/>
<path d="M20.9,74.8c-0.8,0-0.9,0.1-0.9,0.8s0.2,0.8,0.8,0.8s0.8-0.1,0.9-0.8S21.5,74.8,20.9,74.8z"/>
<path d="M25.8,74.8c-0.7,0-0.9,0.1-0.9,0.8s0.1,0.9,0.9,0.9s0.8-0.2,0.8-0.8S26.5,74.8,25.8,74.8z"/>
<path d="M30.9,74.8c-0.7,0-0.9,0.1-0.9,0.8s0.1,0.9,0.7,0.9s0.9-0.1,0.9-0.8S31.6,74.8,30.9,74.8z"/>
<path d="M36,74.8c-0.8,0-0.9,0.1-0.9,0.9s0.2,0.8,0.8,0.8s0.8-0.2,0.8-0.8S36.6,74.8,36,74.8z"/>
<path d="M41.8,75.6c0-0.7-0.1-0.8-0.8-0.9s-0.9,0.1-0.9,0.8s0.1,0.9,0.8,0.9S41.8,76.3,41.8,75.6z"/>
<path d="M46,74.8c-0.7,0-0.9,0.2-0.8,0.9s0.2,0.8,0.9,0.8s0.8-0.2,0.8-0.9S46.6,74.8,46,74.8z"/>
<path d="M51,74.8c-0.7,0-0.8,0.2-0.8,0.9s0.2,0.8,0.8,0.8s0.9-0.2,0.8-0.9S51.7,74.8,51,74.8z"/>
<path d="M56.1,74.8c-0.8,0-0.9,0.1-0.9,0.9s0.2,0.8,0.8,0.8s0.8-0.2,0.8-0.8S56.8,74.8,56.1,74.8z"/>
<path d="M61.1,74.8c-0.7,0-0.9,0.2-0.8,0.9s0.2,0.8,0.9,0.8s0.8-0.2,0.8-0.9S61.8,74.8,61.1,74.8z"/>
<path d="M66.2,74.8c-0.8,0-0.9,0.1-0.9,0.9s0.2,0.8,0.8,0.8s0.8-0.2,0.8-0.8S66.9,74.8,66.2,74.8z"/>
<path d="M71.2,74.8c-0.7,0-0.9,0.1-0.9,0.7s0.1,0.9,0.8,0.9s0.8-0.1,0.8-0.8S71.9,74.8,71.2,74.8z"/>
<path d="M76.2,74.8c-0.7,0-0.8,0.2-0.8,1c0,0.6,0.2,0.7,0.9,0.7s0.8-0.2,0.8-0.9S76.9,74.8,76.2,74.8z"/>
<path d="M81.3,74.8c-0.7,0-0.9,0.1-0.9,0.8s0.1,0.9,0.9,0.9s0.8-0.2,0.8-0.8S82,74.8,81.3,74.8z"/>
<path d="M86.4,74.8c-0.8,0-0.9,0.1-0.9,0.8s0.2,0.8,0.8,0.8c0.6,0,0.8-0.1,0.9-0.8S87,74.8,86.4,74.8z"/>
<path d="M91.4,74.8c-0.8,0-0.9,0.1-0.9,0.9s0.2,0.8,0.8,0.8s0.8-0.2,0.8-0.8S92.1,74.8,91.4,74.8z"/>
<path d="M96.4,74.8c-0.7,0-0.9,0.1-0.9,0.8s0.1,0.9,0.9,0.9s0.8-0.2,0.8-0.8S97.1,74.8,96.4,74.8z"/>
<path d="M101.5,74.8c-0.8,0-0.9,0.1-0.9,0.9s0.2,0.8,0.8,0.8s0.8-0.2,0.8-0.8S102.1,74.8,101.5,74.8z"/>
<path d="M136.7,74.8c-0.7,0-0.9,0.1-0.9,0.8s0.1,0.9,0.9,0.9s0.8-0.2,0.8-0.8S137.4,74.8,136.7,74.8z"/>
<path d="M141.7,74.8c-0.7,0-0.9,0.2-0.8,0.9s0.2,0.8,0.9,0.8s0.8-0.2,0.8-0.9S142.4,74.8,141.7,74.8z"/>
<path d="M146.8,74.8c-0.8,0-0.9,0.1-0.9,0.9s0.2,0.8,0.8,0.8s0.8-0.2,0.8-0.8S147.5,74.8,146.8,74.8z"/>
<path d="M151.9,74.8c-0.8,0-0.9,0.1-0.9,0.9s0.2,0.8,0.8,0.8s0.8-0.2,0.8-0.8S152.5,74.8,151.9,74.8z"/>
<path d="M156.8,74.8c-0.7,0-0.8,0.2-0.8,0.9s0.2,0.8,0.8,0.8s0.9-0.2,0.8-0.9S157.5,74.8,156.8,74.8z"/>
<path d="M161.9,74.8c-0.7,0-0.9,0.1-0.9,0.8s0.1,0.9,0.9,0.9s0.8-0.2,0.8-0.8S162.6,74.8,161.9,74.8z"/>
<path d="M166.9,74.8c-0.7,0-0.8,0.2-0.8,0.8s0.1,0.9,0.9,0.9s0.8-0.2,0.8-0.9S167.6,74.8,166.9,74.8z"/>
<path d="M172,74.8c-0.7,0-0.9,0.2-0.8,0.9s0.2,0.8,0.9,0.8s0.8-0.2,0.8-0.9S172.6,74.8,172,74.8z"/>
<path d="M177.1,74.8c-0.8,0-0.9,0.1-0.9,0.9s0.2,0.8,0.8,0.8s0.8-0.2,0.8-0.8S177.7,74.8,177.1,74.8z"/>
<path d="M182.1,76.4c0.6,0,0.8-0.2,0.8-0.9s-0.2-0.8-0.9-0.8s-0.9,0.2-0.8,0.9S181.4,76.5,182.1,76.4z"/>
<path d="M187.1,74.8c-0.7,0-0.9,0.2-0.8,0.9s0.2,0.8,0.9,0.8s0.8-0.2,0.8-0.9S187.8,74.8,187.1,74.8z"/>
<path d="M151.8,94.9c-0.7,0-0.8,0.2-0.8,0.9s0.2,0.8,1,0.8c0.6,0,0.7-0.2,0.7-0.9S152.5,94.9,151.8,94.9z"/>
<path d="M146.8,94.9c-0.7,0-0.9,0.2-0.8,1s0.2,0.8,0.9,0.7s0.8-0.2,0.8-0.9S147.5,94.9,146.8,94.9z"/>
<path d="M141.7,94.9c-0.7,0-0.8,0.2-0.8,0.9s0.2,0.8,1,0.8c0.6,0,0.7-0.2,0.7-0.9S142.4,94.9,141.7,94.9z"/>
<path d="M136.7,94.9c-0.7,0-0.8,0.2-0.8,0.8s0.1,0.8,0.8,0.8s0.9-0.1,0.9-0.8S137.4,94.9,136.7,94.9z"/>
<path d="M131.7,94.9c-0.7,0-0.9,0.1-0.9,0.8s0.1,0.9,0.9,0.9s0.8-0.2,0.8-0.8S132.4,94.9,131.7,94.9z"/>
<path d="M126.7,96.6c0.6,0,0.8-0.2,0.8-0.9s-0.2-0.8-0.9-0.8s-0.8,0.2-0.8,0.8S126,96.6,126.7,96.6z"/>
<path d="M46,84.8c-0.7,0-0.9,0.1-0.9,0.8s0.1,0.9,0.9,0.9s0.8-0.2,0.8-0.8S46.7,84.9,46,84.8z"/>
<path d="M51.1,84.8c-0.8,0-0.9,0.1-0.9,0.9s0.2,0.8,0.8,0.8s0.8-0.1,0.8-0.8S51.7,84.9,51.1,84.8z"/>
<path d="M56.1,84.8c-0.7,0-0.9,0.2-0.8,0.9s0.2,0.8,0.9,0.8s0.8-0.1,0.8-0.9S56.7,84.8,56.1,84.8z"/>
<path d="M61.2,84.8c-0.8,0-0.9,0.1-0.9,0.9s0.2,0.8,0.8,0.8s0.8-0.1,0.8-0.8S61.8,84.9,61.2,84.8z"/>
<path d="M66.2,84.8c-0.7,0-0.9,0.1-0.9,0.9s0.2,0.8,0.9,0.8s0.8-0.2,0.8-0.9S66.8,84.9,66.2,84.8z"/>
<path d="M71.2,84.8c-0.7,0-0.9,0.2-0.8,0.9s0.2,0.8,0.9,0.8s0.8-0.1,0.8-0.9S71.8,84.8,71.2,84.8z"/>
<path d="M76.2,84.8c-0.7,0-0.8,0.2-0.8,0.8s0.1,0.9,0.9,0.9s0.8-0.2,0.8-0.9S76.9,84.8,76.2,84.8z"/>
<path d="M81.3,84.8c-0.8,0-0.9,0.1-0.9,0.9s0.2,0.8,0.8,0.8s0.8-0.1,0.9-0.8S82,84.9,81.3,84.8z"/>
<path d="M86.3,84.8c-0.7,0-0.8,0.2-0.8,0.8s0.2,0.9,0.9,0.8c0.8,0,0.8-0.2,0.8-0.9S87,84.8,86.3,84.8z"/>
<path d="M91.2,84.8c-0.6,0-0.8,0.2-0.7,0.9s0.2,0.8,0.9,0.8s0.8-0.2,0.8-0.9S92,84.8,91.2,84.8z"/>
<path d="M96.4,84.8c-0.7,0-0.9,0.1-0.9,0.8s0.1,0.9,0.9,0.9s0.8-0.2,0.8-0.8S97.1,84.9,96.4,84.8z"/>
<path d="M101.5,84.8c-0.8,0-0.9,0.1-0.9,0.9s0.2,0.8,0.8,0.8s0.9-0.1,0.9-0.8S102.2,84.9,101.5,84.8z"/>
<path d="M106.4,84.8c-0.6,0-0.8,0.2-0.8,0.9s0.2,0.8,0.9,0.8s0.8-0.2,0.8-0.8S107.1,84.8,106.4,84.8z"/>
<path d="M111.5,86.5c0.7,0,0.8-0.2,0.8-0.8s-0.1-0.8-0.8-0.8s-0.9,0.1-0.9,0.8S110.8,86.5,111.5,86.5z"/>
<path d="M116.6,84.8c-0.7,0-0.9,0.1-0.9,0.8s0.1,0.9,0.9,0.9s0.8-0.2,0.8-0.8S117.2,84.9,116.6,84.8z"/>
<path d="M121.6,84.8c-0.8,0-0.9,0.1-0.9,0.9s0.2,0.8,0.8,0.8s0.8-0.1,0.8-0.8S122.3,84.9,121.6,84.8z"/>
<path d="M126.6,86.5c0.7,0,0.8-0.2,0.8-0.8s-0.1-0.8-0.8-0.9s-0.9,0.1-0.9,0.8S125.9,86.5,126.6,86.5z"/>
<path d="M131.7,84.8c-0.7,0-0.9,0.2-0.8,0.9s0.2,0.8,0.9,0.8s0.8-0.1,0.8-0.9S132.3,84.8,131.7,84.8z"/>
<path d="M136.8,84.8c-0.8,0-0.9,0.1-0.9,0.9s0.2,0.8,0.8,0.8s0.9-0.1,0.9-0.8S137.4,84.9,136.8,84.8z"/>
<path d="M141.7,84.8c-0.7,0-0.8,0.2-0.8,0.9s0.2,0.8,0.8,0.8s0.9-0.2,0.8-0.9S142.4,84.8,141.7,84.8z"/>
<path d="M146.7,84.8c-0.7,0-0.8,0.2-0.8,0.9s0.2,0.8,1,0.8c0.6,0,0.7-0.2,0.7-0.9S147.5,84.8,146.7,84.8z"/>
<path d="M151.8,84.8c-0.7,0-0.9,0.2-0.8,0.9s0.2,0.8,0.9,0.8s0.8-0.1,0.8-0.9S152.5,84.8,151.8,84.8z"/>
<path d="M156.8,84.8c-0.7,0-0.8,0.2-0.8,0.9s0.2,0.8,1,0.8c0.6,0,0.7-0.2,0.7-0.9S157.5,84.8,156.8,84.8z"/>
<path d="M161.9,84.8c-0.7,0-0.8,0.2-0.8,0.8s0.1,0.8,0.8,0.8s0.9-0.1,0.9-0.8S162.6,84.8,161.9,84.8z"/>
<path d="M166.9,84.8c-0.7,0-0.8,0.2-0.8,1c0,0.6,0.2,0.7,0.9,0.7s0.8-0.2,0.8-0.9S167.6,84.8,166.9,84.8z"/>
<path d="M171.9,84.8c-0.6,0-0.8,0.2-0.8,0.9s0.2,0.8,0.9,0.8s0.8-0.2,0.8-0.8S172.6,84.8,171.9,84.8z"/>
<path d="M177,84.8c-0.7,0-0.9,0.2-0.8,0.9s0.2,0.8,0.9,0.8s0.8-0.1,0.8-0.9S177.7,84.8,177,84.8z"/>
<path d="M121.6,94.9c-0.7,0-0.8,0.2-0.8,0.8s0.1,0.9,0.9,0.9s0.8-0.2,0.8-0.9S122.3,94.9,121.6,94.9z"/>
<path d="M116.5,94.9c-0.7,0-0.8,0.2-0.8,0.8s0.2,0.9,0.9,0.8s0.8-0.2,0.8-0.9S117.2,94.9,116.5,94.9z"/>
<path d="M111.6,94.9c-0.8,0-0.9,0.1-0.9,0.9s0.2,0.8,0.8,0.8s0.8-0.1,0.8-0.8S112.2,94.9,111.6,94.9z"/>
<path d="M106.5,94.9c-0.7,0-0.9,0.1-0.9,0.8s0.1,0.9,0.7,0.9s0.9-0.1,0.9-0.8S107.2,94.9,106.5,94.9z"/>
<path d="M101.3,94.9c-0.6,0-0.8,0.2-0.8,0.9s0.2,0.8,0.9,0.8s0.8-0.2,0.8-0.8S102.1,94.9,101.3,94.9z"/>
<path d="M96.4,94.9c-0.7,0-0.9,0.1-0.9,0.8s0.1,0.9,0.9,0.9s0.8-0.2,0.8-0.8S97.1,94.9,96.4,94.9z"/>
<path d="M51.1,94.9c-0.8,0-0.9,0.1-0.9,0.9s0.2,0.8,0.8,0.8s0.8-0.1,0.8-0.8S51.7,94.9,51.1,94.9z"/>
<path d="M56.1,94.9c-0.8,0-0.9,0.1-0.9,0.9s0.2,0.8,0.8,0.8s0.8-0.1,0.9-0.8S56.8,94.9,56.1,94.9z"/>
<path d="M61.1,94.9c-0.7,0-0.8,0.2-0.8,0.8s0.1,0.9,0.9,0.9s0.8-0.2,0.8-0.9S61.8,94.9,61.1,94.9z"/>
<path d="M66.2,94.9c-0.7,0-0.9,0.1-0.9,0.8s0.1,0.9,0.9,0.9s0.8-0.2,0.8-0.8S66.8,94.9,66.2,94.9z"/>
<path d="M71.2,94.9c-0.7,0-0.9,0.2-0.8,0.9s0.2,0.8,0.9,0.8s0.8-0.1,0.8-0.9S71.8,94.9,71.2,94.9z"/>
<path d="M76.2,94.9c-0.7,0-0.8,0.2-0.8,0.8s0.1,0.9,0.9,0.9s0.8-0.2,0.8-0.9S76.9,94.9,76.2,94.9z"/>
<path d="M81.2,94.9c-0.6,0-0.8,0.2-0.8,0.9s0.2,0.8,0.9,0.8s0.8-0.2,0.8-0.8S81.9,94.9,81.2,94.9z"/>
<path d="M86.3,94.9c-0.7,0-0.9,0.2-0.8,0.9s0.2,0.8,0.9,0.8c0.7,0,0.8-0.1,0.8-0.9S87,94.9,86.3,94.9z"/>
<path d="M91.4,94.9c-0.7,0-0.9,0.1-0.9,0.8s0.1,0.9,0.9,0.9s0.8-0.2,0.8-0.8S92,94.9,91.4,94.9z"/>
<path d="M192.1,74.8c-0.6,0-0.8,0.2-0.8,0.9s0.2,0.8,0.7,0.8s1-0.4,1-0.9C193,74.9,192.8,74.8,192.1,74.8z"/>
<path d="M126.2,105c-0.3,0.1-0.5,0.4-0.5,0.8c0.1,0.3,0.2,0.6,0.4,0.7s0.6-0.1,0.8-0.2c0.2-0.1,0.4-0.3,0.5-0.5
	c0.2-0.2,0.1-0.6-0.1-0.7C126.9,104.9,126.5,104.8,126.2,105z"/>
<path d="M86.5,105c-0.2,0-0.3,0-0.5,0c-0.2,0.1-0.5,0.2-0.5,0.4c-0.1,0.2-0.1,0.5,0.2,0.6c0.3,0.2,0.6,0.4,0.8,0.6
	c0.1,0.1,0.3,0.1,0.5,0c0,0,0.1-0.1,0.1-0.2c0.1-0.4,0.1-0.7,0-1.1C87,105.1,86.6,105,86.5,105z"/>
<path d="M184.5,61.3c0.2,0,0.3,0,0.5,0c0.4,0.1,0.2-0.5,0.5-0.6c0-0.1,0-0.3,0-0.4c-0.4-0.3-0.8-0.5-1.3-0.5c-0.3,0-0.5,0.3-0.5,0.6
	C183.7,60.9,184,61.3,184.5,61.3L184.5,61.3z"/>
<path d="M32.7,80.1c-0.2,0.2-0.3,0.5-0.2,0.7c0,0.1,0.3,0.1,0.5,0.1c0.1,0,0.2,0,0.4,0h0.7c0.2,0,0.3-0.2,0.3-0.4v-0.1
	c-0.2-0.5-0.8-0.8-1.3-0.6C32.9,79.9,32.8,80,32.7,80.1z"/>
<path d="M86.4,66.4c0.2,0,0.3-0.1,0.5-0.2c0.1-0.1,0.2-0.4,0.2-0.5c-0.3-0.5-0.8-0.8-1.3-0.8c-0.1,0-0.3,0-0.3,0.1
	C85.2,65.7,85.6,66.3,86.4,66.4z"/>
<path d="M28.3,79.8c-0.4,0-0.9,0.5-0.9,0.8s0.4,0.4,0.8,0.4h0.2c0.2,0,0.3,0,0.5,0c0.4,0.1,0.4-0.2,0.3-0.4
	C29.2,80.1,28.8,79.8,28.3,79.8z"/>
<path d="M66.6,55.3c-0.3,0-0.6-0.2-1-0.2s-0.3,0.1-0.3,0.3c0,0.7,0.2,0.9,0.9,0.8c0.1,0,0.2,0,0.3,0c0.3-0.1,0.4-0.3,0.4-0.6
	C67,55.3,66.8,55.3,66.6,55.3z"/>
<path d="M53.6,100c-0.3,0-0.7,0.2-0.8,0.4s0.2,0.5,0.5,0.6l0.6,0.2c0.1,0,0.3,0.2,0.3,0.1c0.2-0.1,0.3-0.4,0.3-0.6
	C54.3,100.3,54,100.1,53.6,100z"/>
<path d="M182.1,84.8c-0.3-0.1-0.7,0.1-0.8,0.5c0,0.3,0,0.7,0.1,1c0.2-0.1,0.5-0.3,0.8-0.4c0.2-0.1,0.4-0.2,0.6-0.2
	c0.4-0.1,0.3-0.3,0.1-0.5C182.5,84.9,182.3,84.8,182.1,84.8z"/>
<path d="M38.5,79.8c-0.4,0-0.8,0.3-1,0.6c0,0.1,0,0.2,0.1,0.3s0.3,0.2,0.3,0.2c0.4-0.3,0.8-0.1,1.2-0.2c0.1,0,0.2-0.1,0.3-0.1
	c0-0.1,0-0.1,0-0.2C39.1,80.2,39,79.8,38.5,79.8z"/>
<path d="M43.6,89.9c-0.3,0-0.5,0.1-0.4,0.4c0.2,0.4,0.3,0.8,0.5,1.2c0,0,0.1,0,0.3,0.1c0.1-0.1,0.1-0.3,0.2-0.5
	c0.2-0.4,0.1-0.9-0.3-1.1C43.8,89.9,43.7,89.9,43.6,89.9z"/>
<path d="M118.1,110.6c0,0.1,0.3,0.3,0.3,0.3c0.4-0.3,0.8-0.1,1.2-0.2c0.1,0,0.1-0.2,0.2-0.2c-0.1-0.1-0.1-0.2-0.2-0.3
	c-0.5-0.3-1.1-0.2-1.4,0.3C118.2,110.6,118.1,110.6,118.1,110.6z"/>
<path d="M78.9,61.3l0.5-0.1c-0.2-0.1-0.4-0.3-0.6-0.4c-0.2-0.2-0.4-0.3-0.7-0.4c-0.1-0.1-0.3,0-0.3,0.1c-0.1,0.1-0.1,0.2,0,0.3
	C78,61.3,78,61.3,78.9,61.3z"/>
<path d="M22.7,80c0,0-0.1,0.1-0.1,0.2c0,0,0,0.1,0.1,0.1c0.4,0.1,0.9,0.2,1.3,0.2l0.2-0.1C23.9,79.9,23.3,79.7,22.7,80
	C22.8,79.9,22.8,80,22.7,80z"/>
<path d="M133.2,100.6c0,0,0,0.2,0.1,0.3s0.2,0.1,0.3,0c0.3-0.2,0.6-0.4,0.8-0.6c0.1-0.1,0.1-0.2,0.2-0.2l-0.3-0.1
	C133.8,99.8,133.5,100.3,133.2,100.6z"/>
<path d="M41.2,84.9c-0.1-0.1-0.3,0.3-0.2,0.6c0.1,0.3,0.3,0.5,0.5,0.7h0.2v-0.4c0-0.2,0.1-0.4,0-0.6C41.6,85.1,41.5,84.9,41.2,84.9z
	"/>
<path d="M172.2,24c-5.7-1.7-12-2-19.9-0.8c-4.6-9.1-13-16.7-22-19.8C115.8-1.7,100.7-1.1,89.9,5c-2.7,1.5-5.2,3.5-7.8,6.3
	c-9.2-5.4-21.7-4.8-29.7-2.6c-6.6,1.8-11.2,4.8-14.5,9.2c-2.6,3.5-4.4,7.6-5.2,12C17.5,29.4,4.1,38.7,0.7,52C-2,62.5,2.9,73,12.9,78
	c6.7,3.4,15.1,4.8,25.7,4.3c1.9,9.4,7.9,17.2,15.7,20.4c6.7,2.8,15.3,2.8,22-0.1c7.2,5.3,17.7,11,29.5,11c2.3,0,4.6-0.2,6.9-0.7
	c7.9-1.5,15.4-5.6,21.9-11.9c1.2-1.1,2.1-2.2,3-3.2c6.2,2.1,12.5,2,18.1-0.3c4.2-1.7,7.1-4.3,9.2-8.3c4.4,0.3,9.1,0.4,12.9-1
	c0.1,0,0.2,0,0.3-0.1c5.1-1.9,9.9-5,13.5-8.7c4.8-5,7.6-13.1,7.6-21.7C199.4,42.4,188.5,28.8,172.2,24z M135.9,95.3L135.9,95.3
	c-0.1,0.1-0.1,0.1-0.2,0.2c-0.1,0.2-0.3,0.4-0.4,0.5c-0.6,0.7-1.2,1.4-1.9,2.1c-2.2,2.3-4.7,4.3-7.3,6c-8.4,5.6-18.1,7.6-27.3,5.9
	c-7-1.4-14.1-4.8-21.5-10.4c-0.2-0.2-0.5-0.2-0.7-0.2c-0.3,0-0.6,0.1-0.8,0.2c-5.7,2.8-13.7,3-19.9,0.5c-7.5-3-13.1-10.6-14.6-19.8
	c-0.1-0.6-0.8-1.2-1.5-1.1c-17.5,1.1-29.1-2.9-34.4-11.8c-3.8-6.5-3.7-17.3,4-25.5c5.8-6.2,15.2-9.7,24.5-9c0.6,0,1.4-0.5,1.5-1.1
	c0.6-4.1,2.1-8,4.3-11.3c3-4.6,7.6-7.5,14.4-9.2c7.6-1.9,19.4-2.3,27.5,3.1c0.5,0.4,1.4,0.2,1.8-0.2c5.1-5.7,11.7-9.3,19.5-10.6
	c15.5-2.6,31.4,2.3,40.6,12.6c2.8,3.2,5,6.3,6.5,9.4c0.3,0.7,1.1,0.8,1.7,0.7c6.3-1,11.3-1.1,15.7-0.3c7,1.3,13.8,4.7,19.1,9.6
	c11,10.3,13.1,28.2,4.7,40c-3,4.1-8.1,7.8-13.8,9.9c-0.1,0-0.2,0-0.2,0.1c-3.4,1.5-8.2,1.2-12,0.9l-1.1-0.1c-0.5,0-1.1,0.3-1.3,0.8
	c-1.9,4-4.6,6.4-8.6,8c-5.2,2-10.8,1.9-16.6-0.3C136.9,94.5,136.2,94.7,135.9,95.3z"/>
</svg>
