<svg width="843" height="828" viewBox="0 0 843 828" fill="none" xmlns="http://www.w3.org/2000/svg"><path opacity=".25" d="M276.219 412.786c0 31.446 9.348 60.585 25.496 84.988m258.97-1.214c15.783-24.282 25.011-53.178 25.011-84.381.121-85.474-69.448-154.8-155.165-154.8-4.613 0-9.105.243-13.476.607" stroke="#B9C9DA"/><path d="M585.817 411.572c0-85.11-69.448-154.193-155.286-154.193-4.613 0-9.105.243-13.476.607m-65.561 20.033c-45.529 26.953-75.275 76.61-75.275 133.552h-52.207" stroke="#B9C9DA"/><path opacity=".25" d="M461.492 314.321c-9.834-3.035-20.275-4.735-31.081-4.735-56.942 0-103.2 46.258-103.2 103.2s46.258 103.2 103.2 103.2 103.2-46.258 103.2-103.2c0-21.854-6.799-42.13-18.333-58.763" stroke="#B9C9DA"/><path d="M327.211 412.786c0 56.942 46.136 103.2 103.078 103.2 56.943 0 103.079-46.258 103.079-103.2h51.357" stroke="#B9C9DA"/><path opacity=".25" d="M546.967 241.595c-33.145-22.218-73.09-35.209-116.191-35.209-42.858 0-82.803 12.869-115.827 34.966" stroke="#B9C9DA"/><path d="M267.72 286.518c-27.439 34.966-43.708 78.917-43.708 126.753 0 22.34 3.521 43.83 10.198 63.863m80.86 105.628c33.024 22.218 73.09 35.209 116.07 35.209 42.98 0 82.803-12.991 115.827-35.088m-195.471-47.471c22.704 14.57 50.143 23.068 79.646 23.068s56.821-8.498 79.403-22.946" stroke="#B9C9DA"/><path opacity=".25" d="M629.044 472.278c5.827-18.94 8.863-39.095 8.863-59.977 0-48.444-16.755-93.002-44.923-128.211" stroke="#B9C9DA"/><path d="M265.293 610.688c24.768 20.761 53.543 37.03 84.988 47.35" stroke="#B9C9DA"/><path opacity=".25" d="M181.154 348.438c-5.342 20.639-8.134 42.251-8.134 64.469 0 63.377 22.825 121.29 60.705 166.213m282.888 77.704c100.408-35.452 172.405-131.125 172.405-243.673 0-86.81-42.858-163.542-108.421-210.407m-267.954-19.426c-54.028 28.046-96.887 74.547-120.198 131.125" stroke="#B9C9DA"/><path opacity=".15" d="M555.468 185.746c-36.91-20.155-79.404-31.567-124.569-31.567-32.66 0-63.984 5.949-92.758 16.876" stroke="#B9C9DA"/><path opacity=".25" d="M185.768 222.17c-40.794 52.328-65.077 118.134-65.077 189.645 0 170.826 138.653 309.357 309.722 309.357 90.33 0 171.554-38.609 228.132-100.165" stroke="#B9C9DA"/><path d="M681.492 593.689c36.788-50.871 58.399-113.52 58.399-181.025 0-135.252-86.688-250.229-207.614-292.48" stroke="#B9C9DA" stroke-opacity=".15"/><path opacity=".15" d="M494.763 109.985c-20.762-4.493-42.373-6.799-64.47-6.799-86.445 0-164.755 35.816-220.848 93.487" stroke="#B9C9DA"/><path opacity=".15" d="M429.805 775.807c199.48 0 361.2-161.721 361.2-361.2 0-199.479-161.72-361.2-361.2-361.2-199.479 0-361.2 161.721-361.2 361.2 0 199.479 161.721 361.2 361.2 361.2z" stroke="#B9C9DA"/><path opacity=".05" d="M429.198 826.8c228.011 0 412.8-184.789 412.8-412.8 0-228.011-184.789-412.8-412.8-412.8-228.011 0-412.8 184.789-412.8 412.8 0 228.011 184.789 412.8 412.8 412.8z" stroke="#B9C9DA"/><path d="M312.886 247.788a4.353 4.353 0 004.371-4.371 4.352 4.352 0 00-4.371-4.371 4.352 4.352 0 00-4.37 4.371 4.352 4.352 0 004.37 4.371zm233.232 1.578a4.353 4.353 0 004.371-4.371 4.353 4.353 0 00-4.371-4.371 4.353 4.353 0 00-4.371 4.371c-.121 2.307 1.943 4.371 4.371 4.371zM314.343 588.59a4.352 4.352 0 004.371-4.371 4.352 4.352 0 00-4.371-4.37 4.352 4.352 0 00-4.37 4.37 4.352 4.352 0 004.37 4.371zm-48.687 28.046a4.353 4.353 0 004.371-4.371 4.352 4.352 0 00-4.371-4.37 4.352 4.352 0 00-4.371 4.37 4.353 4.353 0 004.371 4.371zm314.336-410.129a4.353 4.353 0 004.371-4.371 4.352 4.352 0 00-4.371-4.37 4.352 4.352 0 00-4.371 4.37 4.353 4.353 0 004.371 4.371zM349.793 283.24a4.352 4.352 0 004.37-4.371 4.352 4.352 0 00-4.37-4.371 4.353 4.353 0 00-4.371 4.371 4.353 4.353 0 004.371 4.371zM222.918 416.064a4.353 4.353 0 004.371-4.371 4.353 4.353 0 00-4.371-4.371 4.353 4.353 0 00-4.371 4.371 4.353 4.353 0 004.371 4.371zm-44.313-59.006a4.353 4.353 0 004.371-4.371 4.353 4.353 0 00-4.371-4.371 4.353 4.353 0 00-4.371 4.371c0 2.307 1.943 4.371 4.371 4.371zm13.235-39.823a4.352 4.352 0 004.37-4.371 4.352 4.352 0 00-4.37-4.371 4.353 4.353 0 00-4.371 4.371c0 2.307 1.942 4.371 4.371 4.371zm-7.286-88.509a4.353 4.353 0 004.371-4.371 4.353 4.353 0 00-4.371-4.371 4.352 4.352 0 00-4.37 4.371c0 2.428 1.821 4.371 4.37 4.371zm274.512 91.423a4.353 4.353 0 004.371-4.371 4.353 4.353 0 00-4.371-4.371 4.353 4.353 0 00-4.371 4.371c0 2.428 1.821 4.371 4.371 4.371zm55.969 41.28a4.353 4.353 0 004.371-4.371 4.352 4.352 0 00-4.371-4.37 4.352 4.352 0 00-4.371 4.37 4.353 4.353 0 004.371 4.371zm69.45 56.092a4.353 4.353 0 004.371-4.371 4.353 4.353 0 00-4.371-4.371 4.353 4.353 0 00-4.371 4.371c-.121 2.307 1.943 4.371 4.371 4.371zm73.694 210.893a4.353 4.353 0 004.371-4.371 4.352 4.352 0 00-4.371-4.371 4.352 4.352 0 00-4.37 4.371 4.352 4.352 0 004.37 4.371zm25.133-29.504a4.353 4.353 0 004.371-4.371 4.353 4.353 0 00-4.371-4.371 4.353 4.353 0 00-4.371 4.371 4.353 4.353 0 004.371 4.371zM234.699 483.933a4.353 4.353 0 004.371-4.371 4.353 4.353 0 00-4.371-4.371 4.353 4.353 0 00-4.371 4.371 4.353 4.353 0 004.371 4.371zm324.677 18.809a4.353 4.353 0 004.371-4.371 4.353 4.353 0 00-4.371-4.371 4.353 4.353 0 00-4.371 4.371c-.121 2.428 1.943 4.371 4.371 4.371zm-48 36a4.353 4.353 0 004.371-4.371 4.353 4.353 0 00-4.371-4.371 4.353 4.353 0 00-4.371 4.371c-.121 2.428 1.943 4.371 4.371 4.371zm-160 1a4.353 4.353 0 004.371-4.371 4.353 4.353 0 00-4.371-4.371 4.353 4.353 0 00-4.371 4.371c-.121 2.428 1.943 4.371 4.371 4.371zm275.846-61.758a4.353 4.353 0 004.371-4.371 4.353 4.353 0 00-4.371-4.371 4.352 4.352 0 00-4.37 4.371 4.352 4.352 0 004.37 4.371zm-19.183-373.219a4.353 4.353 0 004.371-4.371 4.353 4.353 0 00-4.371-4.37 4.353 4.353 0 00-4.371 4.37 4.353 4.353 0 004.371 4.371z" fill="#00CA90"/><path fill-rule="evenodd" clip-rule="evenodd" d="M326.485 408.658l6.314 6.314-6.314 6.313-6.313-6.313 6.313-6.314zm23.672 243.43l6.314 6.313-6.314 6.314-6.313-6.314 6.313-6.313zm240.52-373.219l6.313 6.314-6.313 6.313-6.314-6.313 6.314-6.314zM234.696 576.813l6.314 6.314-6.314 6.313-6.313-6.313 6.313-6.314zm99.196-408.671l6.313 6.313-6.313 6.313-6.314-6.313 6.314-6.313zm212.589 408.671l6.314 6.314-6.314 6.313-6.313-6.313 6.313-6.314zM296.617 495.71h8.863v8.863h-8.863v-8.863zm218.418 156.378h8.863v8.863h-8.863v-8.863zM262.742 280.326h8.863v8.863h-8.863v-8.863zm-59.008-87.053h8.863v8.863h-8.863v-8.863z" fill="#00CA90"/><path d="M208.105 202.136a4.353 4.353 0 004.371-4.371 4.352 4.352 0 00-4.371-4.37 4.352 4.352 0 00-4.371 4.37 4.353 4.353 0 004.371 4.371zm59.008 87.053a4.353 4.353 0 004.371-4.371 4.353 4.353 0 00-4.371-4.371 4.353 4.353 0 00-4.371 4.371 4.353 4.353 0 004.371 4.371z" fill="#00CA90"/><g filter="url(#filter0_d)"><path d="M503 412.5c0 40.041-32.459 72.5-72.5 72.5S358 452.541 358 412.5s32.459-72.5 72.5-72.5 72.5 32.459 72.5 72.5z" fill="#fff"/></g><path d="M484.088 412.5c0 29.595-23.992 53.587-53.587 53.587-29.595 0-53.587-23.992-53.587-53.587 0-29.595 23.992-53.587 53.587-53.587 29.595 0 53.587 23.992 53.587 53.587z" fill="url(#paint0_linear)"/><path opacity=".1" fill-rule="evenodd" clip-rule="evenodd" d="M432.976 404.426c5.515 1.017 9.66 5.35 10.64 10.634a.82.82 0 00.843.591l.209-.029 4.578-.605a7.383 7.383 0 002.076-.815c3.489-2.004 4.757-6.395 2.934-9.942l-.173-.302c-1.399-2.329-3.684-3.67-6.243-3.763a7.494 7.494 0 00-3.763-6.236 7.494 7.494 0 00-10.243 2.768 7.652 7.652 0 00-.814 2.076l-.599 4.571-.029.202a.814.814 0 00.231.634.665.665 0 00.353.216zm-15.583 15.627c1.016 5.813 5.347 10.196 10.63 11.231a.808.808 0 01.353.22.857.857 0 01.23.67l-.029.221-.605 4.831a8.02 8.02 0 01-.814 2.192c-2.004 3.682-6.392 5.021-9.938 3.096l-.302-.182c-2.328-1.476-3.668-3.888-3.762-6.59-2.501-.098-4.9-1.514-6.241-3.971-2.068-3.79-.829-8.637 2.767-10.813a7.452 7.452 0 012.076-.86l4.569-.631.201-.031a.797.797 0 01.635.244.731.731 0 01.23.373zm-.007-5c1.017-5.508 5.351-9.66 10.636-10.64a.8.8 0 00.353-.209.784.784 0 00.231-.635l-.029-.209-.591-4.563a7.394 7.394 0 00-.815-2.076c-2.004-3.488-6.396-4.757-9.944-2.933l-.302.173c-2.33 1.398-3.671 3.683-3.765 6.242a7.52 7.52 0 00-6.244 3.763 7.493 7.493 0 002.769 10.243c.663.382 1.37.649 2.077.815l4.571.598.202.029a.824.824 0 00.635-.231.886.886 0 00.216-.367zm15.59 16.232c5.515-1.073 9.66-5.647 10.64-11.225a.867.867 0 01.209-.373.797.797 0 01.634-.251l.209.031 4.578.639a7.14 7.14 0 012.076.86c3.489 2.115 4.757 6.75 2.934 10.494l-.173.319c-1.399 2.458-3.684 3.874-6.243 3.973-.094 2.64-1.434 5.174-3.763 6.582-3.589 2.184-8.181.875-10.243-2.922a8.345 8.345 0 01-.814-2.192l-.599-4.824-.029-.213a.899.899 0 01.231-.67.702.702 0 01.353-.228z" fill="#203D12"/><path fill-rule="evenodd" clip-rule="evenodd" d="M432.976 399.382c5.515 1.017 9.66 5.35 10.64 10.634a.82.82 0 00.843.591l.209-.029 4.578-.605a7.383 7.383 0 002.076-.815c3.489-2.004 4.757-6.395 2.934-9.941l-.173-.303c-1.399-2.329-3.684-3.67-6.243-3.763a7.494 7.494 0 00-3.763-6.236 7.495 7.495 0 00-10.243 2.768 7.652 7.652 0 00-.814 2.076l-.599 4.571-.029.202a.814.814 0 00.231.634.658.658 0 00.353.216zm-15.583 15.595c1.016 5.508 5.347 9.66 10.63 10.64a.812.812 0 01.353.209.786.786 0 01.23.634l-.029.209-.605 4.578a7.35 7.35 0 01-.814 2.076c-2.004 3.489-6.392 4.757-9.938 2.934l-.302-.173c-2.328-1.399-3.668-3.684-3.762-6.243a7.514 7.514 0 01-6.241-3.763 7.497 7.497 0 012.767-10.243 7.652 7.652 0 012.076-.814l4.569-.599.201-.029a.824.824 0 01.635.231.693.693 0 01.23.353zm-.007-4.968c1.017-5.508 5.351-9.66 10.636-10.64a.8.8 0 00.353-.209.783.783 0 00.231-.634l-.029-.21-.591-4.562a7.388 7.388 0 00-.815-2.077c-2.004-3.488-6.396-4.757-9.944-2.933l-.302.173c-2.33 1.398-3.671 3.683-3.765 6.242a7.52 7.52 0 00-6.244 3.763 7.493 7.493 0 002.769 10.243c.663.382 1.37.649 2.077.815l4.571.598.202.029a.824.824 0 00.635-.231.886.886 0 00.216-.367zm15.59 15.609c5.515-1.017 9.66-5.349 10.64-10.634a.82.82 0 01.843-.591l.209.029 4.578.606a7.35 7.35 0 012.076.814c3.489 2.004 4.757 6.395 2.934 9.942l-.173.303c-1.399 2.328-3.684 3.669-6.243 3.763a7.497 7.497 0 01-3.763 6.236 7.495 7.495 0 01-10.243-2.769 7.64 7.64 0 01-.814-2.076l-.599-4.57-.029-.202a.824.824 0 01.231-.635.71.71 0 01.353-.216z" fill="#fff"/><defs><linearGradient id="paint0_linear" x1="430.501" y1="466.087" x2="430.501" y2="358.913" gradientUnits="userSpaceOnUse"><stop stop-color="#0FBA89"/><stop offset="1" stop-color="#C6F3A3"/></linearGradient><filter id="filter0_d" x="338" y="330" width="185" height="185" filterUnits="userSpaceOnUse" color-interpolation-filters="sRGB"><feFlood flood-opacity="0" result="BackgroundImageFix"/><feColorMatrix in="SourceAlpha" values="0 0 0 0 0 0 0 0 0 0 0 0 0 0 0 0 0 0 127 0"/><feOffset dy="10"/><feGaussianBlur stdDeviation="10"/><feColorMatrix values="0 0 0 0 0.101961 0 0 0 0 0.207843 0 0 0 0 0.0941176 0 0 0 0.2 0"/><feBlend in2="BackgroundImageFix" result="effect1_dropShadow"/><feBlend in="SourceGraphic" in2="effect1_dropShadow" result="shape"/></filter></defs></svg>