<svg xmlns="http://www.w3.org/2000/svg" xmlns:xlink="http://www.w3.org/1999/xlink" width="249.46" height="152.626" viewBox="0 0 249.46 152.626"><defs><style>.a{fill:url(#a);}.b{fill:url(#b);}.c{fill:#de9903;stroke:rgba(0,0,0,0);}.c,.e{stroke-miterlimit:10;}.d{fill:#766de8;}.e{fill:none;stroke:#4dcdfe;stroke-width:2px;}.f{fill:#4fdc6f;}</style><linearGradient id="a" x1="0.5" y1="1" x2="0.5" gradientUnits="objectBoundingBox"><stop offset="0" stop-color="#f37c6a"/><stop offset="1" stop-color="#f7cf06"/></linearGradient><linearGradient id="b" x1="0.5" x2="0.5" y2="1" gradientUnits="objectBoundingBox"><stop offset="0" stop-color="#f37c6a"/><stop offset="1" stop-color="#ff4c4c"/></linearGradient></defs><g transform="translate(-30.734 -351.436)"><path class="a" d="M157.916.394C123.7,6.585,127.985,30.586,97.872,42.74c-36.864,14.878-39.005-9.055-66.906-4.906S-.193,69.883.008,75.953s-1.225,28.529,37.257,46.856,76.472,9.732,119.008-14.382,46.242-70.92,38.063-86.879S170.35-1.857,157.916.394Z" transform="matrix(0.995, 0.105, -0.105, 0.995, 44.602, 351.436)"/><path class="b" d="M41.557,83.286A41.506,41.506,0,0,1,0,41.557H0A41.557,41.557,0,1,1,41.557,83.286Zm0-66.042A24.285,24.285,0,0,0,17.243,41.557h0A24.7,24.7,0,0,0,24.313,58.8a23.687,23.687,0,0,0,17.243,7.07,24.313,24.313,0,1,0,0-48.626Z" transform="translate(186.591 402.141)"/><path class="c" d="M32.509,38.013a.974.974,0,1,1,.086,0C32.566,38.017,32.537,38.015,32.509,38.013Zm-6.8-.6a.974.974,0,1,1,.086,0C25.763,37.422,25.734,37.42,25.705,37.418Zm-6.8-.6a.974.974,0,1,1,.086,0C18.959,36.827,18.931,36.825,18.9,36.823Zm-6.8-.6a.974.974,0,1,1,.086,0C12.156,36.231,12.128,36.23,12.1,36.227Zm-6.8-.6a.974.974,0,1,1,.086,0C5.353,35.636,5.324,35.635,5.3,35.632Zm34.616-3.877a.974.974,0,1,1,.086,0C39.969,31.759,39.941,31.758,39.912,31.755Zm-6.8-.6a.974.974,0,1,1,.086,0C33.166,31.164,33.137,31.163,33.108,31.16Zm-6.8-.6a.974.974,0,1,1,.086,0C26.362,30.568,26.334,30.567,26.3,30.565Zm-6.8-.6a.974.974,0,1,1,.086,0C19.559,29.973,19.53,29.972,19.5,29.97Zm-6.8-.6a.974.974,0,1,1,.086,0C12.755,29.378,12.727,29.377,12.7,29.374Zm-6.8-.6a.974.974,0,1,1,.086,0C5.952,28.783,5.924,28.782,5.895,28.779Zm68.633-.9a.974.974,0,1,1,.086,0C74.585,27.882,74.557,27.881,74.528,27.878Zm-6.8-.6a.974.974,0,1,1,.086,0C67.782,27.287,67.754,27.285,67.725,27.283Zm-6.8-.6a.974.974,0,1,1,.086,0C60.979,26.692,60.95,26.69,60.921,26.688Zm-6.8-.6a.974.974,0,1,1,.086,0C54.175,26.1,54.147,26.095,54.118,26.092Zm-6.8-.6a.974.974,0,1,1,.086,0C47.372,25.5,47.343,25.5,47.314,25.5Zm-6.8-.6a.974.974,0,1,1,.086,0C40.568,24.906,40.54,24.9,40.511,24.9Zm-6.8-.6a.974.974,0,1,1,.086,0C33.765,24.311,33.737,24.309,33.708,24.307Zm-6.8-.6a.974.974,0,1,1,.086,0C26.962,23.716,26.933,23.714,26.9,23.712Zm-6.8-.6a.974.974,0,1,1,.086,0C20.158,23.12,20.13,23.119,20.1,23.116Zm-6.8-.6a.974.974,0,1,1,.086,0C13.355,22.525,13.327,22.524,13.3,22.521Zm-6.8-.6a.974.974,0,1,1,.086,0C6.551,21.93,6.523,21.928,6.494,21.926Zm75.437-.306a.974.974,0,1,1,.086,0C81.988,21.624,81.96,21.623,81.931,21.62Zm-6.8-.6a.974.974,0,1,1,.086,0C75.185,21.029,75.156,21.028,75.127,21.025Zm-6.8-.6a.974.974,0,1,1,.086,0C68.382,20.433,68.353,20.432,68.324,20.43Zm-6.8-.6a.974.974,0,1,1,.086,0C61.578,19.838,61.55,19.837,61.521,19.835Zm-6.8-.6a.974.974,0,1,1,.086,0C54.775,19.243,54.746,19.242,54.717,19.24Zm-6.8-.6a.974.974,0,1,1,.086,0C47.971,18.648,47.943,18.647,47.914,18.644Zm-6.8-.6a.974.974,0,1,1,.086,0C41.168,18.053,41.14,18.052,41.111,18.049Zm-6.8-.6a.974.974,0,1,1,.086,0C34.365,17.457,34.336,17.456,34.308,17.454Zm-6.8-.6a.974.974,0,1,1,.086,0C27.561,16.862,27.533,16.861,27.5,16.858Zm-6.8-.6a.974.974,0,1,1,.086,0C20.758,16.267,20.729,16.266,20.7,16.263Zm-6.8-.6a.974.974,0,1,1,.086,0C13.954,15.672,13.926,15.671,13.9,15.668Zm-6.8-.6a.974.974,0,1,1,.086,0C7.151,15.077,7.123,15.076,7.094,15.073Zm41.42-3.282a.974.974,0,1,1,.086,0C48.571,11.8,48.542,11.794,48.513,11.791Zm-6.8-.6a.974.974,0,1,1,.086,0C41.767,11.2,41.739,11.2,41.71,11.2Zm-6.8-.6a.974.974,0,1,1,.086,0C34.964,10.6,34.936,10.6,34.907,10.6Zm-6.8-.6a.974.974,0,1,1,.086,0C28.161,10.009,28.132,10.008,28.1,10.005Zm-6.8-.6a.974.974,0,1,1,.086,0C21.358,9.414,21.329,9.413,21.3,9.41Zm-6.8-.6a.974.974,0,1,1,.086,0C14.554,8.819,14.526,8.817,14.5,8.815Zm-6.8-.6a.974.974,0,1,1,.086,0C7.751,8.224,7.723,8.222,7.694,8.22Zm-6.8-.6a.974.974,0,1,1,.086,0C.947,7.629.919,7.627.89,7.625ZM35.507,3.747a.974.974,0,1,1,.086,0C35.564,3.751,35.535,3.75,35.507,3.747Zm-6.8-.6a.974.974,0,1,1,.086,0C28.76,3.156,28.732,3.155,28.7,3.152Zm-6.8-.6a.974.974,0,1,1,.086,0C21.957,2.561,21.928,2.56,21.9,2.557Zm-6.8-.6a.974.974,0,1,1,.086,0C15.154,1.966,15.125,1.965,15.1,1.962Z" transform="translate(52.484 396.243)"/><g transform="translate(253.637 377.11)"><path class="d" d="M4.172,2.411A2.1,2.1,0,1,1,2.411.024,2.1,2.1,0,0,1,4.172,2.411" transform="translate(22.36 6.276)"/><path class="e" d="M4.459,2.229A2.229,2.229,0,1,1,2.229,0,2.229,2.229,0,0,1,4.459,2.229Z" transform="translate(1.238 20.555)"/><path class="f" d="M2.914.13.351,1.821A.782.782,0,0,0,.432,3.173L3.178,4.547A.782.782,0,0,0,4.308,3.8L4.125.736A.782.782,0,0,0,2.914.13" transform="translate(4.31 4.631) rotate(180)"/></g></g></svg>