<svg width="384" height="297" viewBox="0 0 384 297" fill="none" xmlns="http://www.w3.org/2000/svg">
<g clip-path="url(#clip0)">
<path d="M29.1871 258.891L22.0858 262.435L20.2256 268.468L28.5964 276.273L43.0252 274.099L47.7637 267.626L50.2146 260.198L45.3882 257.458L29.1871 258.891Z" fill="white" stroke="#040222" stroke-width="0.88575" stroke-miterlimit="10" stroke-linecap="round" stroke-linejoin="round"/>
<path d="M1.38504 288.188C1.38504 288.188 0.580642 279.906 5.4196 278.448C10.8116 276.826 12.4329 277.342 16.5429 272.955C20.0622 269.184 20.3135 267.953 20.8917 267.877C21.4699 267.802 25.0771 268.129 26.711 269.675C28.3449 271.233 29.8155 273.257 33.4353 273.194C39.3677 273.106 38.9781 268.933 44.0684 268.078C46.1674 267.727 47.7762 267.626 47.7762 267.626L42.3716 285.901C42.3716 285.901 34.7424 286.718 32.8571 286.479C30.9718 286.228 31.6003 285.386 31.7008 285.122C31.8013 284.858 32.3292 283.865 31.0724 283.865C29.8155 283.865 27.3897 286.756 23.8705 287.183C20.3512 287.598 13.1871 288.264 7.93334 288.54C2.65448 288.804 1.48559 288.729 1.38504 288.188Z" fill="white" stroke="#040222" stroke-width="0.88575" stroke-miterlimit="10" stroke-linecap="round" stroke-linejoin="round"/>
<path d="M6.58887 272.276C6.58887 272.276 13.3383 270.177 16.4427 273.345C19.5472 276.512 15.9023 273.609 15.9023 273.609C15.9023 273.609 16.3422 271.975 15.852 270.353C15.3618 268.732 13.464 263.415 11.9431 264.006C10.4223 264.597 11.5661 268.732 12.3453 270.064C13.1372 271.396 14.8088 273.395 16.5307 273.332" stroke="#040222" stroke-width="0.88575" stroke-miterlimit="10" stroke-linecap="round" stroke-linejoin="round"/>
<path d="M14.7584 285.976C20.8668 285.285 26.2839 284.405 27.1637 283.764C28.0435 283.123 29.3758 281.451 32.43 281.602C35.4842 281.753 32.9202 284.166 36.2257 284.166C38.7018 284.166 41.3789 283.626 43.3145 282.671L47.7638 267.638C47.7638 267.638 46.155 267.739 44.0561 268.091C38.9657 268.946 39.3554 273.131 33.4229 273.206C29.8031 273.257 28.3451 271.233 26.6986 269.687C25.0647 268.129 21.4575 267.802 20.8793 267.89C20.3012 267.978 20.0624 269.21 16.5305 272.968C12.4206 277.354 10.7992 276.839 5.40723 278.46C2.11422 279.453 1.43551 283.601 1.33496 286.152C4.17549 286.29 9.85656 286.529 14.7584 285.976Z" fill="#040222" stroke="#040222" stroke-width="0.88575" stroke-miterlimit="10" stroke-linecap="round" stroke-linejoin="round"/>
<path d="M108.734 256.39L116.753 257.886L117.784 268.468L109.413 276.274L99.4713 274.778L97.0078 267.312L97.033 258.464L99.3707 257.144L108.734 256.39Z" fill="white" stroke="#040222" stroke-width="0.88575" stroke-miterlimit="10" stroke-linecap="round" stroke-linejoin="round"/>
<path d="M136.637 288.189C136.637 288.189 137.441 279.906 132.602 278.448C127.21 276.827 125.589 277.342 121.479 272.955C117.96 269.185 117.708 267.953 117.13 267.878C116.552 267.79 112.945 268.129 111.311 269.675C109.677 271.233 108.207 273.257 104.587 273.194C98.6543 273.106 105.793 268.619 100.703 267.764C98.604 267.413 96.9952 267.312 96.9952 267.312L95.6504 285.914C95.6504 285.914 103.28 286.731 105.165 286.492C107.05 286.24 106.422 285.398 106.321 285.134C106.221 284.871 105.693 283.878 106.95 283.878C108.207 283.878 110.632 286.768 114.152 287.196C117.671 287.61 124.835 288.277 130.089 288.553C135.355 288.805 136.524 288.729 136.637 288.189Z" fill="white" stroke="#040222" stroke-width="0.88575" stroke-miterlimit="10" stroke-linecap="round" stroke-linejoin="round"/>
<path d="M131.433 272.277C131.433 272.277 124.747 270.819 121.642 273.986C118.538 277.153 122.12 273.621 122.12 273.621C122.12 273.621 121.68 271.988 122.17 270.366C122.661 268.745 124.558 263.428 126.079 264.019C127.587 264.61 126.456 268.745 125.677 270.077C124.885 271.409 122.623 273.068 120.901 273.006" stroke="#040222" stroke-width="0.88575" stroke-miterlimit="10" stroke-linecap="round" stroke-linejoin="round"/>
<path d="M123.251 285.976C117.143 285.285 111.726 284.405 110.846 283.764C109.966 283.123 108.634 281.452 105.579 281.603C102.525 281.753 105.089 284.167 101.784 284.167C99.3076 284.167 97.7868 284.116 95.8638 283.161L97.0075 267.324C97.0075 267.324 98.6163 267.425 100.715 267.777C105.806 268.632 98.6666 273.131 104.599 273.207C108.219 273.257 109.677 271.233 111.323 269.687C112.957 268.129 116.564 267.802 117.143 267.89C117.721 267.978 117.96 269.21 121.491 272.968C125.601 277.354 127.223 276.839 132.615 278.46C135.908 279.453 136.586 283.601 136.687 286.152C133.834 286.291 128.153 286.529 123.251 285.976Z" fill="#040222" stroke="#040222" stroke-width="0.88575" stroke-miterlimit="10" stroke-linecap="round" stroke-linejoin="round"/>
<path d="M42.6107 141.072L22.0859 262.435C22.0859 262.435 22.8275 262.523 26.2588 262.347C29.69 262.159 38.2367 262.624 42.5981 261.882C46.9594 261.141 49.6491 260.952 50.2147 260.211C50.7678 259.469 61.3632 227.984 62.7458 224.176C64.1409 220.368 74.3593 191.673 76.3954 186.382C78.4441 181.09 88.8007 155.978 90.2336 153.728C90.2336 153.728 91.3647 169.892 91.7669 175.724C92.1817 181.556 95.7638 241.006 96.166 246.322C96.5808 251.639 97.0835 255.434 96.983 257.584C96.8824 259.733 97.6994 259.117 100.05 259.017C102.4 258.916 116.728 257.885 116.728 257.885L136.738 134.435L135.129 113.458L57.0144 112.214L42.6107 141.072Z" fill="white" stroke="#040222" stroke-width="0.88575" stroke-miterlimit="10" stroke-linecap="round" stroke-linejoin="round"/>
<path d="M80.0781 118.046C80.0781 118.046 86.6516 118.574 90.5981 118.636C94.5447 118.699 94.9846 118.448 95.2863 117.354C95.5879 116.261 96.2541 112.666 96.2541 112.666L80.4929 112.189L80.0781 118.046Z" fill="#040222"/>
<path d="M98.7551 112.742C98.7551 112.742 96.9326 116.148 96.9326 117.606C96.9326 119.064 98.9185 118.536 101.671 118.586C104.424 118.636 119.016 118.674 122.523 118.636C126.029 118.611 124.936 118.511 125.024 115.909C125.112 113.295 124.282 111.196 124.282 111.196L98.7551 112.742Z" fill="#040222"/>
<path d="M126.859 112.201C126.859 112.201 126.406 118.121 127.047 118.322C127.676 118.523 133.822 118.046 133.822 118.046V111.196L126.859 112.201Z" fill="#040222"/>
<path d="M98.8054 147.896C95.4998 148.236 92.0057 150.058 90.2461 153.728" stroke="#040222" stroke-width="0.88575" stroke-miterlimit="10" stroke-linecap="round" stroke-linejoin="round"/>
<path d="M90.749 32.6535C87.5566 33.9229 89.8818 45.5993 89.8818 45.5993L82.2148 87.0006V113.47C82.2148 113.47 99.6728 114.237 110.08 114.187C120.487 114.137 135.142 113.47 135.142 113.47L135.72 82.8278L134.79 40.2953L134.073 37.4547C134.073 37.4547 130.806 35.1295 129.335 33.8601C127.864 32.6032 123.654 29.3102 123.654 29.3102C123.654 29.3102 115.786 37.6433 113.084 37.769C110.394 37.8946 107.403 37.769 103.406 33.2191C99.4089 28.6692 98.793 28.0156 98.793 28.0156C98.793 28.0156 93.954 31.384 90.749 32.6535Z" fill="white" stroke="#040222" stroke-width="0.88575" stroke-miterlimit="10" stroke-linecap="round" stroke-linejoin="round"/>
<path d="M98.8812 52.248C98.8812 52.248 101.106 54.9503 100.704 57.1624C100.301 59.3871 98.479 60.4177 98.479 60.4177" stroke="#040222" stroke-width="0.88575" stroke-miterlimit="10" stroke-linecap="round" stroke-linejoin="round"/>
<path d="M99.2706 73.0493C99.2706 73.0493 97.1968 74.9598 97.1968 77.6495C97.1968 80.3392 99.2706 82.413 99.2706 82.413" stroke="#040222" stroke-width="0.88575" stroke-miterlimit="10" stroke-linecap="round" stroke-linejoin="round"/>
<path d="M98.4789 91.5376C98.4789 91.5376 98.6297 94.8683 96.9707 96.452C95.3116 98.0356 94.834 99.7827 94.834 99.7827" stroke="#040222" stroke-width="0.88575" stroke-miterlimit="10" stroke-linecap="round" stroke-linejoin="round"/>
<path d="M125.225 54.3975C125.225 54.3975 123.163 55.6669 123.088 58.2812C123.013 60.8955 124.156 62.2529 124.156 62.2529" stroke="#040222" stroke-width="0.88575" stroke-miterlimit="10" stroke-linecap="round" stroke-linejoin="round"/>
<path d="M123.641 75.0349C123.641 75.0349 122.296 77.4104 122.535 79.5597C122.774 81.6963 124.835 84.0844 124.835 84.0844" stroke="#040222" stroke-width="0.88575" stroke-miterlimit="10" stroke-linecap="round" stroke-linejoin="round"/>
<path d="M123.666 92.9709C123.666 92.9709 123.792 95.5852 122.925 97.7345C122.058 99.8837 121.379 100.676 121.379 100.676" stroke="#040222" stroke-width="0.88575" stroke-miterlimit="10" stroke-linecap="round" stroke-linejoin="round"/>
<path d="M54.0859 64.9301C54.0859 64.9301 55.368 66.4258 55.368 68.0723C55.368 69.7314 50.7175 94.2153 50.1017 96.8547C49.4732 99.4941 48.2918 107.551 48.0153 109.763C47.7387 111.987 42.6987 140.079 42.6107 141.071C42.5227 142.077 45.3633 141.411 52.1252 141.574C58.8872 141.738 70.8652 142.165 73.9068 142.077C76.9485 141.976 79.7136 141.888 80.1912 141.222C80.6688 140.556 82.7552 127.045 83.4213 122.859C84.0875 118.674 87.0411 104.107 87.7953 98.2121C88.562 92.3174 91.0254 72.9993 91.7921 66.6144C92.5588 60.242 93.5015 50.0739 93.9791 46.4416C94.4567 42.8218 94.4567 36.3991 92.9359 33.169C92.3451 31.9121 92.1441 32.0127 92.1441 32.0127C92.1441 32.0127 85.5832 34.9914 83.1825 36.3112C80.7819 37.6309 58.95 48.7793 46.0168 58.2436C33.0836 67.7078 14.042 79.9246 14.042 95.0951C14.042 110.266 26.6861 108.355 38.7395 108.229C44.8856 108.167 48.2164 108.242 48.2164 108.242L50.0891 96.8547L55.3554 68.0723C55.3554 68.0723 55.3805 66.6018 54.1111 64.8799" fill="#B7C2FF"/>
<path d="M54.0859 64.9301C54.0859 64.9301 55.368 66.4258 55.368 68.0723C55.368 69.7314 50.7175 94.2153 50.1017 96.8547C49.4732 99.4941 48.2918 107.551 48.0153 109.763C47.7387 111.987 42.6987 140.079 42.6107 141.071C42.5227 142.077 45.3633 141.411 52.1252 141.574C58.8872 141.738 70.8652 142.165 73.9068 142.077C76.9485 141.976 79.7136 141.888 80.1912 141.222C80.6688 140.556 82.7552 127.045 83.4213 122.859C84.0875 118.674 87.0411 104.107 87.7953 98.2121C88.562 92.3174 91.0254 72.9993 91.7921 66.6144C92.5588 60.242 93.5015 50.0739 93.9791 46.4416C94.4567 42.8218 94.4567 36.3991 92.9359 33.169C92.3451 31.9121 92.144 32.0127 92.144 32.0127C92.144 32.0127 85.5832 34.9914 83.1825 36.3112C80.7819 37.6309 58.95 48.7793 46.0168 58.2436C33.0836 67.7078 14.042 79.9246 14.042 95.0951C14.042 110.266 26.6861 108.355 38.7395 108.229C44.8856 108.167 48.2164 108.242 48.2164 108.242L50.0891 96.8547L55.3554 68.0723C55.3554 68.0723 55.3805 66.6018 54.1111 64.8799" stroke="#040222" stroke-width="0.88575" stroke-miterlimit="10" stroke-linecap="round" stroke-linejoin="round"/>
<path d="M35.6855 88.396L51.8238 88.1321" stroke="#040222" stroke-width="0.88575" stroke-miterlimit="10" stroke-linecap="round" stroke-linejoin="round"/>
<path d="M150.941 62.2527C150.941 62.2527 147.711 63.5347 147.711 67.4059C147.711 71.2771 146.63 133.756 146.63 136.433C146.63 139.11 131.61 137.59 131.61 137.59C131.61 137.59 131.66 82.3752 131.66 74.4821C131.66 66.5889 131.145 37.706 131.145 36.8513C131.145 35.9967 131.082 35.2551 131.371 35.4813C131.66 35.695 135.293 38.1082 136.059 38.6864C136.826 39.2645 142.469 43.5505 144.531 45.7751C146.592 47.9998 149.319 49.2567 152.675 53.5426C156.031 57.8285 162.253 64.5402 166.149 70.1333C170.058 75.7138 174.846 81.973 176.103 87.6038C177.36 93.2346 176.317 104.898 169.354 105.426C162.391 105.954 147.095 106.067 147.095 106.067L147.698 67.4185C147.723 67.4059 147.384 64.0375 150.941 62.2527Z" fill="#B7C2FF" stroke="#040222" stroke-width="0.88575" stroke-miterlimit="10" stroke-linecap="round" stroke-linejoin="round"/>
<path d="M147.409 88.2702L156.961 88.1194" stroke="#040222" stroke-width="0.88575" stroke-miterlimit="10" stroke-linecap="round" stroke-linejoin="round"/>
<path d="M110.72 98.6516L115.044 87.5785C115.044 87.5785 114.026 59.8268 114.114 57.401C114.202 54.9753 113.636 46.2777 113.46 45.423C113.284 44.5684 111.198 45.1214 110.959 46.2274C110.72 47.3335 108.873 59.0224 108.735 62.2526C108.596 65.4827 107.314 77.7875 106.887 81.2062C106.46 84.6249 105.743 88.0436 106.083 89.0994C106.397 90.1426 110.72 98.6516 110.72 98.6516Z" fill="#5D21D2" stroke="#040222" stroke-width="0.442875" stroke-miterlimit="10" stroke-linecap="round" stroke-linejoin="round"/>
<path d="M111.676 41.7029C111.676 41.7029 110.193 42.6455 110.193 44.2543C110.193 45.2975 110.532 45.926 110.947 46.2276C111.173 46.391 111.437 46.4664 111.676 46.4539C112.355 46.4162 114.064 45.4861 114.102 43.8019C114.139 42.1177 112.619 42.0045 112.028 42.2182" fill="#5D21D2"/>
<path d="M111.676 41.7029C111.676 41.7029 110.193 42.6455 110.193 44.2543C110.193 45.2975 110.532 45.926 110.947 46.2276C111.173 46.391 111.437 46.4664 111.676 46.4539C112.355 46.4162 114.064 45.4861 114.102 43.8019C114.139 42.1177 112.619 42.0045 112.028 42.2182" stroke="#040222" stroke-width="0.442875" stroke-miterlimit="10" stroke-linecap="round" stroke-linejoin="round"/>
<path d="M97.2095 35.6194C97.2095 35.6194 100.666 39.7922 101.86 41.0239C103.054 42.2682 105.718 44.9202 105.718 44.9202L108.107 40.0939" stroke="#040222" stroke-width="0.442875" stroke-miterlimit="10" stroke-linecap="round" stroke-linejoin="round"/>
<path d="M117.244 40.8481C117.244 40.8481 118.086 42.7083 118.312 44.4428C118.538 46.1773 118.802 46.127 119.242 46.039C119.682 45.951 125.979 38.3721 125.979 38.3721" stroke="#040222" stroke-width="0.442875" stroke-miterlimit="10" stroke-linecap="round" stroke-linejoin="round"/>
<path d="M106.133 25.5901C106.133 25.5901 105.505 30.8564 105.781 33.4581C106.058 36.0598 108.446 38.5107 111.186 38.8626C113.926 39.2146 116.037 39.29 118.287 38.9381C120.537 38.5861 124.257 36.2735 124.961 31.5602C125.665 26.8469 126.821 16.2264 126.758 13.4738C126.696 10.7213 126.821 7.39056 127.462 6.51075C128.103 5.63094 128.958 5.27901 129.121 4.55003C129.285 3.82104 128.631 2.22481 127.588 2.18711C126.532 2.13683 123.729 3.48168 123 5.11562C122.271 6.74955 121.517 6.02057 121.467 5.6058C121.417 5.19103 121.982 4.13526 122.146 3.14233C122.322 2.13683 122.271 1.16904 121.291 1.11876C120.311 1.06849 118.878 2.32536 118.262 4.14783C117.772 5.61837 116.992 4.72599 117.332 3.88388C117.608 3.20517 117.948 0.490328 116.942 0.389778C115.937 0.289229 114.077 2.3505 113.863 3.44398C113.649 4.53746 113.159 4.27351 113.134 4.05985C113.071 3.58223 113.624 1.93573 112.505 1.00565C111.613 0.27666 110.897 0.27666 110.381 1.00565C109.728 1.93573 109.238 3.61994 109.351 4.44948C109.464 5.27901 109.112 5.35442 108.672 4.62544C108.232 3.89645 107.189 1.52096 105.128 1.62151C103.079 1.72206 103.644 3.64508 104.198 4.05985C104.751 4.47461 105.442 5.04021 105.228 6.57359C105.014 8.10698 103.23 15.2209 102.224 18.4636C101.219 21.7063 99.3586 26.8721 99.1198 27.5634C98.9564 28.0284 98.793 28.0284 98.793 28.0284C98.793 28.0284 102.463 32.6788 104.298 34.1871C105.052 34.8155 107.051 36.4243 107.051 36.4243" fill="#9C768C"/>
<path d="M106.133 25.5901C106.133 25.5901 105.505 30.8564 105.781 33.4581C106.058 36.0598 108.446 38.5107 111.186 38.8626C113.926 39.2146 116.037 39.29 118.287 38.9381C120.537 38.5861 124.257 36.2735 124.961 31.5602C125.665 26.8469 126.821 16.2264 126.758 13.4738C126.696 10.7213 126.821 7.39056 127.462 6.51075C128.103 5.63094 128.958 5.27901 129.121 4.55003C129.285 3.82104 128.631 2.22481 127.588 2.18711C126.532 2.13683 123.729 3.48168 123 5.11562C122.271 6.74955 121.517 6.02057 121.467 5.6058C121.417 5.19103 121.982 4.13526 122.146 3.14233C122.322 2.13683 122.271 1.16904 121.291 1.11876C120.311 1.06849 118.878 2.32536 118.262 4.14783C117.772 5.61837 116.992 4.72599 117.332 3.88388C117.608 3.20517 117.948 0.490328 116.942 0.389778C115.937 0.289229 114.077 2.3505 113.863 3.44398C113.649 4.53746 113.159 4.27351 113.134 4.05985C113.071 3.58223 113.624 1.93573 112.505 1.00565C111.613 0.27666 110.897 0.27666 110.381 1.00565C109.728 1.93573 109.238 3.61994 109.351 4.44948C109.464 5.27901 109.112 5.35442 108.672 4.62544C108.232 3.89645 107.189 1.52096 105.128 1.62151C103.079 1.72206 103.644 3.64508 104.198 4.05985C104.751 4.47461 105.442 5.04021 105.228 6.57359C105.014 8.10698 103.23 15.2209 102.224 18.4636C101.219 21.7063 99.3586 26.8721 99.1198 27.5634C98.9564 28.0284 98.793 28.0284 98.793 28.0284C98.793 28.0284 102.463 32.6788 104.298 34.1871C105.052 34.8155 107.051 36.4243 107.051 36.4243" stroke="#040222" stroke-width="0.88575" stroke-miterlimit="10" stroke-linecap="round" stroke-linejoin="round"/>
<path d="M99.7997 28.5315C101.057 28.7703 102.087 28.0539 102.992 27.2118C103.897 26.3697 104.45 25.5025 104.45 25.5025L104.877 23.0641C104.877 23.0641 104.048 23.856 103.143 23.6926C102.238 23.5292 102.389 21.845 102.791 20.7766C103.181 19.7083 103.734 17.823 103.897 17.4208C104.061 17.0186 104.689 16.4781 105.154 16.5535C105.619 16.6289 105.581 17.6973 105.431 18.3257C105.28 18.9542 104.84 20.7263 105.858 20.8897C106.888 21.0531 107.479 19.7837 107.705 18.5645C107.944 17.3454 108.409 13.2857 111.489 12.343C114.568 11.4004 117.396 12.1042 120.161 12.1419C122.926 12.1796 125.05 11.9785 125.515 12.9337C125.993 13.8764 126.672 16.7169 126.269 20.5001C126.571 17.4208 126.785 14.6934 126.76 13.4868C126.697 10.7342 126.822 7.4035 127.463 6.52369C128.104 5.64388 128.959 5.29195 129.123 4.56297C129.299 3.83398 128.632 2.23775 127.589 2.20005C126.533 2.14977 123.731 3.49462 123.002 5.12856C122.273 6.76249 121.518 6.03351 121.468 5.61874C121.418 5.20397 121.984 4.1482 122.147 3.15527C122.323 2.14977 122.273 1.18198 121.292 1.1317C120.312 1.08143 118.879 2.3383 118.263 4.16077C117.773 5.63131 116.994 4.73893 117.333 3.89682C117.61 3.21811 117.949 0.503268 116.943 0.402718C115.938 0.302168 114.078 2.36344 113.864 3.45692C113.65 4.5504 113.16 4.28645 113.135 4.07279C113.072 3.59517 113.625 1.94867 112.507 1.01859C111.614 0.289599 110.898 0.289599 110.383 1.01859C109.729 1.94867 109.239 3.63288 109.352 4.46242C109.478 5.29195 109.113 5.36736 108.673 4.63838C108.233 3.90939 107.19 1.5339 105.129 1.63445C103.068 1.735 103.646 3.65802 104.199 4.07279C104.764 4.48755 105.443 5.05315 105.229 6.58653C105.016 8.11991 103.231 15.2338 102.225 18.4765C101.22 21.7193 99.3598 26.885 99.121 27.5763C99.0833 27.6768 99.0205 27.7774 98.9199 27.8779C99.1336 28.1922 99.4101 28.4561 99.7997 28.5315Z" fill="#040222"/>
<path d="M114.881 26.3191C114.881 26.3191 115.56 27.1738 117.332 27.0481C119.104 26.9224 120.009 26.7087 120.386 26.6962C120.763 26.6836 120.889 27.4 120.839 27.7519C120.788 28.1039 119.167 28.4558 117.86 28.3804C116.553 28.305 114.705 28.0536 114.378 26.8847C114.378 26.8847 113.863 30.0646 117.885 30.0646C120.738 30.0646 121.153 28.3175 121.153 28.3175" stroke="#040222" stroke-width="0.442875" stroke-miterlimit="10" stroke-linecap="round" stroke-linejoin="round"/>
<path d="M118.161 17.9358C118.161 17.9358 117.935 19.1424 118.413 19.8085C118.89 20.4872 120.21 21.9075 120.185 22.7873C120.16 23.6671 117.81 23.7928 117.81 23.7928" stroke="#040222" stroke-width="0.442875" stroke-miterlimit="10" stroke-linecap="round" stroke-linejoin="round"/>
<path d="M113.461 18.1366C112.392 18.2749 110.256 17.6087 110.08 19.494C109.904 21.3668 112.392 20.9394 113.285 20.9646C114.177 20.9897 116.904 20.8263 116.854 19.5569C116.804 18.2874 115.66 17.8601 113.461 18.1366Z" fill="white" stroke="#040222" stroke-width="0.442875" stroke-miterlimit="10" stroke-linecap="round" stroke-linejoin="round"/>
<path d="M119.682 19.6452C119.657 20.3616 120.763 21.1031 122.611 21.0403C124.458 20.9649 125.489 20.6884 125.464 19.6452C125.439 18.602 124.194 18.1495 122.56 18.3506C120.939 18.5643 119.732 18.25 119.682 19.6452Z" fill="white" stroke="#040222" stroke-width="0.442875" stroke-miterlimit="10" stroke-linecap="round" stroke-linejoin="round"/>
<path d="M113.222 18.2377C113.222 18.2377 112.744 18.841 112.719 19.7585C112.694 20.6886 112.744 20.9902 112.97 20.9902C113.196 20.9902 113.724 20.3115 113.8 19.6077C113.875 18.9038 113.9 17.735 113.222 18.2377Z" fill="#040222"/>
<path d="M122.812 18.4007C123.088 18.3379 123.076 19.2051 123.013 19.7078C122.95 20.2609 122.862 20.8013 122.586 20.7762C122.309 20.751 122.158 20.198 122.183 19.7078C122.209 19.2302 122.46 18.4761 122.812 18.4007Z" fill="#040222"/>
<path d="M111.123 16C111.123 16 112.217 15.6732 113.561 15.7486C114.906 15.824 116.276 16 116.276 16" stroke="#040222" stroke-width="0.442875" stroke-miterlimit="10" stroke-linecap="round" stroke-linejoin="round"/>
<path d="M119.983 16.1508C120.084 16.1508 121.58 15.9497 122.434 15.9748C123.289 16 124.382 16.0628 124.382 16.0628" stroke="#040222" stroke-width="0.442875" stroke-miterlimit="10" stroke-linecap="round" stroke-linejoin="round"/>
<path d="M130.441 273.206L130.353 280.584L135.694 286.366L144.781 286.743L148.012 282.356C148.012 282.356 147.295 280.546 147.245 279.378C147.195 278.209 147.446 272.502 147.446 272.502L130.441 273.206Z" fill="white" stroke="#040222" stroke-width="0.88575" stroke-miterlimit="10" stroke-linecap="round" stroke-linejoin="round"/>
<path d="M129.988 294.02C130.73 294.536 133.344 294.875 135.569 294.762C137.793 294.649 139.49 294.385 142.507 294.686C145.523 294.988 151.606 295.327 155.302 295.327C158.997 295.327 161.448 295.327 162.189 294.02C162.931 292.713 162.818 289.76 161.624 288.616C160.43 287.472 159.399 286.743 155.704 286.115C152.009 285.486 149.847 283.84 148.766 282.759C147.685 281.678 147.798 279.466 145.347 279.516C142.896 279.566 143.299 283.89 143.299 283.89C143.299 283.89 141.313 284.858 139.088 284.229C136.863 283.601 134.614 280.974 130.34 280.584L129.988 294.02Z" fill="white" stroke="#040222" stroke-width="0.88575" stroke-miterlimit="10" stroke-linecap="round" stroke-linejoin="round"/>
<path d="M132.439 292.047C134.751 292.009 138.987 291.607 141.149 291.683C143.311 291.758 148.652 292.324 151.292 292.726C153.931 293.128 157.362 293.404 159.487 293.241C160.618 293.153 161.787 292.839 162.616 292.55C162.78 291.142 162.478 289.42 161.623 288.616C160.429 287.472 159.399 286.743 155.703 286.115C152.008 285.486 149.846 283.84 148.765 282.759C147.685 281.678 147.798 279.466 145.347 279.516C142.896 279.579 143.298 283.89 143.298 283.89C143.298 283.89 141.312 284.858 139.088 284.229C136.863 283.601 134.613 280.974 130.34 280.584L130.038 291.632C130.654 291.871 131.458 292.06 132.439 292.047Z" fill="#040222" stroke="#040222" stroke-width="0.88575" stroke-miterlimit="10" stroke-linecap="round" stroke-linejoin="round"/>
<path d="M153.253 273.558C153.253 273.558 148.942 278.435 148.301 283.664C147.66 288.892 148.854 283.186 148.854 283.186C148.854 283.186 151.33 282.671 153.291 280.823C155.251 278.988 155.842 277.744 155.453 277.266C155.063 276.789 148.54 280.421 148.502 285.021" stroke="#040222" stroke-width="0.88575" stroke-miterlimit="10" stroke-linecap="round" stroke-linejoin="round"/>
<path d="M94.9344 274.375L93.2251 281.728C93.2251 281.728 101.734 284.417 102.388 284.417C103.041 284.417 110.758 281.866 110.758 281.866L112.242 274.702L94.9344 274.375Z" fill="white" stroke="#040222" stroke-width="0.88575" stroke-miterlimit="10" stroke-linecap="round" stroke-linejoin="round"/>
<path d="M108.32 292.675C107.302 292.939 106.171 293.593 103.481 293.643C100.792 293.693 100.301 293.266 95.8898 294.561C91.4782 295.855 89.5929 296.333 83.8364 296.496C78.0799 296.66 77.2127 296.006 76.8985 295.415C76.5717 294.825 76.6848 290.84 78.834 289.445C80.9833 288.05 84.6408 288.364 87.3431 286.492C90.0453 284.619 91.4028 283.676 92.5465 281.703C93.6903 279.73 94.2307 278.209 96.7068 278.209C99.1828 278.209 100.201 280.358 100.641 281.979C101.068 283.588 104.085 283.06 104.726 282.784C105.367 282.52 108.006 279.742 109.678 279.403C111.349 279.063 111.274 279.403 111.274 279.403L110.759 281.879L108.32 292.675Z" fill="white" stroke="#040222" stroke-width="0.88575" stroke-miterlimit="10" stroke-linecap="round" stroke-linejoin="round"/>
<path d="M80.6943 294.473C83.9873 294.586 87.1169 294.259 90.0328 293.543C92.9488 292.826 95.915 291.343 99.208 291.23C101.986 291.142 105.844 290.815 108.861 290.287L110.759 281.854L111.274 279.378C111.274 279.378 111.349 279.038 109.678 279.378C108.006 279.717 105.367 282.482 104.726 282.759C104.085 283.023 101.068 283.563 100.641 281.954C100.214 280.345 99.1829 278.184 96.7068 278.184C94.2308 278.184 93.6903 279.704 92.5466 281.678C91.4028 283.651 90.0328 284.581 87.3431 286.466C84.6534 288.352 80.9959 288.025 78.8341 289.42C77.5018 290.287 76.9488 292.135 76.8105 293.568C77.7532 294.008 79.0855 294.422 80.6943 294.473Z" fill="#040222" stroke="#040222" stroke-width="0.88575" stroke-miterlimit="10" stroke-linecap="round" stroke-linejoin="round"/>
<path d="M87.8333 273.382C87.8333 273.382 89.8695 272.553 90.7493 276.839C91.6291 281.125 91.9056 284.405 91.9056 284.405L92.6597 283.211C92.6597 283.211 91.6165 283.211 90.2465 282.997C88.8765 282.784 88.0596 282.168 87.2929 281.288C86.5262 280.408 85.9732 278.209 86.8027 277.718C87.6322 277.228 89.4924 278.586 90.0957 279.503C90.699 280.421 92.1821 282.281 91.4657 285.147" stroke="#040222" stroke-width="0.88575" stroke-miterlimit="10" stroke-linecap="round" stroke-linejoin="round"/>
<path d="M140.069 94.9963C140.069 94.9963 141.414 91.1628 142.407 88.0206C143.4 84.8784 145.712 77.4377 147.283 76.0552C148.854 74.6726 152.047 72.6868 157.074 72.6868C162.102 72.6868 162.617 76.0552 162.667 77.8651C162.718 79.6624 161.8 91.3388 161.184 95.7881C160.656 99.6215 158.909 102.701 156.521 104.146C154.121 105.592 157.59 109.425 157.59 109.425H137.982C137.982 109.425 134.664 101.255 134.803 101.117C134.941 100.979 137.04 97.5226 137.04 97.5226L140.069 94.9963Z" fill="#F1B9FF" stroke="#040222" stroke-width="0.88575" stroke-miterlimit="10" stroke-linecap="round" stroke-linejoin="round"/>
<path d="M162.668 77.8507C162.668 76.0534 162.115 72.6724 157.075 72.6724C152.035 72.6724 148.855 74.6582 147.284 76.0408C145.713 77.4233 143.4 84.864 142.407 88.0062C141.414 91.1484 140.069 94.9818 140.069 94.9818C142.847 95.4469 144.732 93.4987 144.732 93.4987C145.21 94.3031 144.38 96.5655 144.267 98.7148C144.116 101.631 146.115 105.225 152.035 105.326C157.955 105.414 160.494 100.198 161.185 95.7611C161.361 94.6551 161.537 93.084 161.713 91.3369" stroke="#040222" stroke-width="0.88575" stroke-miterlimit="10" stroke-linecap="round" stroke-linejoin="round"/>
<path d="M162.668 77.8507C162.668 76.0534 162.115 72.6724 157.075 72.6724C152.035 72.6724 148.855 74.6582 147.284 76.0408C145.713 77.4233 143.4 84.864 142.407 88.0062C141.414 91.1484 140.069 94.9818 140.069 94.9818C142.847 95.4469 144.732 93.4987 144.732 93.4987C145.21 94.3031 144.38 96.5655 144.267 98.7148C144.116 101.631 146.115 105.225 152.035 105.326C157.955 105.414 160.494 100.198 161.185 95.7611C161.361 94.6551 161.537 93.084 161.713 91.3369C161.713 91.3369 155.994 90.8467 153.644 90.7965C151.281 90.7588 148.679 91.0227 148.603 89.2631C148.528 87.5035 148.805 86.6488 148.365 86.7242C147.925 86.7996 147.435 88.4335 146.693 88.3078C145.964 88.1822 145.876 86.234 146.165 85.1782C146.454 84.1225 147.347 82.5011 148.038 82.4508C148.729 82.4006 148.402 84.487 148.327 84.7635C148.252 85.0526 148.49 85.5804 148.893 85.5804C149.295 85.5804 149.823 84.9269 150.149 83.9591C150.476 82.9787 151.859 79.7737 152.349 79.8114C152.839 79.8491 152.223 81.483 153.241 81.5585C154.259 81.6339 155.227 80.5027 155.353 80.0125C155.353 80.0125 155.843 81.3071 156.534 81.2694C157.226 81.2317 157.766 79.8868 157.766 79.8868C157.766 79.8868 157.754 81.4328 158.721 81.4328C159.702 81.4328 159.815 80.1759 159.815 80.1759C159.815 80.1759 160.179 81.5962 160.996 81.5962C161.813 81.5962 162.668 81.9607 162.668 77.8507Z" fill="#FAE900" stroke="#040222" stroke-width="0.442875" stroke-miterlimit="10" stroke-linecap="round" stroke-linejoin="round"/>
<path d="M154.473 94.1399C154.473 94.1399 153.379 98.5767 155.566 98.5767C157.753 98.5767 157.766 94.4667 157.766 94.4667" stroke="#040222" stroke-width="0.442875" stroke-miterlimit="10" stroke-linecap="round" stroke-linejoin="round"/>
<path d="M157.577 89.6654C157.577 89.6654 159.588 89.2506 159.726 89.2255C159.852 89.2003 159.965 88.597 159.777 87.9937C159.588 87.3904 158.683 84.8264 158.57 84.1729" stroke="#040222" stroke-width="0.442875" stroke-miterlimit="10" stroke-linecap="round" stroke-linejoin="round"/>
<path d="M155.592 84.487C155.592 84.487 154.435 84.3361 153.631 84.3613C152.814 84.3864 151.984 84.9646 151.984 85.4547C151.984 85.9575 152.902 86.6362 154.448 86.5859C155.994 86.5357 156.886 86.2968 156.962 85.2536C157.037 84.2104 155.868 84.1853 155.868 84.1853" fill="white"/>
<path d="M155.592 84.487C155.592 84.487 154.435 84.3361 153.631 84.3613C152.814 84.3864 151.984 84.9646 151.984 85.4547C151.984 85.9575 152.902 86.6362 154.448 86.5859C155.994 86.5357 156.886 86.2968 156.962 85.2536C157.037 84.2104 155.868 84.1853 155.868 84.1853" stroke="#040222" stroke-width="0.442875" stroke-miterlimit="10" stroke-linecap="round" stroke-linejoin="round"/>
<path d="M161.109 84.2232C160.481 84.1855 159.249 84.4117 159.173 85.191C159.098 85.9702 160.267 86.3976 161.008 86.4227C161.737 86.4478 162.479 86.3222 162.529 85.744C162.58 85.1658 162.077 84.2735 161.109 84.2232Z" fill="white" stroke="#040222" stroke-width="0.442875" stroke-miterlimit="10" stroke-linecap="round" stroke-linejoin="round"/>
<path d="M154.196 86.4224C154.083 86.4224 153.844 85.7688 153.945 85.3163C154.045 84.8638 154.347 84.3611 154.347 84.3611L154.548 84.3736C154.548 84.3736 154.623 85.2283 154.498 85.6682C154.372 86.1081 154.309 86.4224 154.196 86.4224Z" fill="#040222"/>
<path d="M160.845 86.2213C160.694 86.2213 160.644 85.5049 160.694 85.153C160.744 84.7885 161.096 84.2229 161.096 84.2229C161.096 84.2229 161.285 84.977 161.147 85.3164C161.021 85.6683 161.008 86.2213 160.845 86.2213Z" fill="#040222"/>
<path d="M120.6 125.185L118.991 132.877L117.194 142.693L116.037 149.744C116.037 149.744 130.755 149.518 135.934 149.518C141.112 149.518 152.889 149.744 152.889 149.744C152.889 149.744 153.04 137.125 153.279 131.783C153.505 126.442 154.209 118.775 154.209 118.775C154.209 118.775 175.349 134.335 177.059 134.574C178.768 134.8 182.011 134.498 182.476 132.713C182.941 130.929 181.621 128.691 179.384 126.517C177.134 124.343 156.634 104.333 156.634 104.333C156.634 104.333 152.462 106.847 148.729 107.237C144.996 107.626 140.898 107.325 139.114 105.351C137.329 103.366 138.133 99.1927 138.9 95.9751C138.9 95.9751 128.355 103.076 123.943 105.967C119.532 108.858 104.814 120.245 100.327 122.571C95.8396 124.896 90.9629 132.022 90.9629 136.358C90.9629 140.695 91.6542 143.711 101.571 143.56C111.488 143.409 117.219 142.706 117.219 142.706L119.155 132.098L107.302 132.412C107.302 132.412 125.351 122.344 127.902 121.728" fill="white"/>
<path d="M120.6 125.185L118.991 132.877L117.194 142.693L116.037 149.744C116.037 149.744 130.755 149.518 135.934 149.518C141.112 149.518 152.889 149.744 152.889 149.744C152.889 149.744 153.04 137.125 153.279 131.783C153.505 126.442 154.209 118.775 154.209 118.775C154.209 118.775 175.349 134.335 177.059 134.574C178.768 134.8 182.011 134.498 182.476 132.713C182.941 130.929 181.621 128.691 179.384 126.517C177.134 124.343 156.634 104.333 156.634 104.333C156.634 104.333 152.462 106.847 148.729 107.237C144.996 107.626 140.898 107.325 139.114 105.351C137.329 103.366 138.133 99.1927 138.9 95.9751C138.9 95.9751 128.355 103.076 123.943 105.967C119.532 108.858 104.814 120.245 100.327 122.571C95.8396 124.896 90.9629 132.022 90.9629 136.358C90.9629 140.695 91.6542 143.711 101.571 143.56C111.488 143.409 117.219 142.706 117.219 142.706L119.155 132.098L107.302 132.412C107.302 132.412 125.351 122.344 127.902 121.728" stroke="#040222" stroke-width="0.88575" stroke-miterlimit="10" stroke-linecap="round" stroke-linejoin="round"/>
<path d="M165.244 112.089C165.093 112.265 163.962 119.404 163.962 121.855C163.962 124.293 163.836 127.059 163.635 128.278C163.447 129.497 163.12 132.136 163.183 132.966C163.246 133.795 164.402 134.373 165.244 134.512C166.086 134.65 166.916 134.901 168.901 134.575C170.887 134.248 173.652 133.808 173.652 133.808C173.652 133.808 174.997 118.336 175.261 116.978C175.513 115.634 176.028 113.447 175.839 113.12C175.651 112.793 171.855 112.29 170.058 112.215C168.273 112.152 165.407 111.913 165.244 112.089Z" fill="white" stroke="#040222" stroke-width="0.88575" stroke-miterlimit="10" stroke-linecap="round" stroke-linejoin="round"/>
<path d="M165.609 133.33C165.609 133.33 165.86 129.949 165.973 128.478C166.099 127.008 166.828 125.034 166.891 122.772C166.954 120.497 167.683 113.873 167.683 113.873C167.683 113.873 167.545 112.591 168.638 112.151C167.042 112.064 165.358 111.95 165.244 112.089C165.094 112.265 163.962 119.404 163.962 121.855C163.962 124.305 163.837 127.058 163.636 128.277C163.447 129.496 163.12 132.136 163.183 132.965C163.246 133.795 164.402 134.373 165.244 134.511C165.546 134.562 165.848 134.624 166.2 134.662C165.823 134.36 165.559 133.921 165.609 133.33Z" fill="#AE90E8" stroke="#040222" stroke-width="0.88575" stroke-miterlimit="10" stroke-linecap="round" stroke-linejoin="round"/>
<path d="M177.511 127.133C177.511 127.133 174.759 126.982 172.874 126.944C170.988 126.894 169.882 126.794 169.254 126.944C168.625 127.095 167.846 127.284 167.896 127.724C167.947 128.164 168.286 128.402 169.153 128.402C170.02 128.402 172.434 128.302 172.534 128.503C172.635 128.691 169.92 128.893 169.392 129.031C168.864 129.182 168.625 129.37 168.65 129.609C168.676 129.848 168.952 130.087 169.379 130.112C169.794 130.137 171.328 130.225 171.328 130.225C171.328 130.225 168.512 130.64 168.097 130.841C167.683 131.042 167.507 131.431 167.544 131.645C167.57 131.871 168.16 132.311 168.663 132.261C169.166 132.211 170.586 132.261 170.586 132.261C170.586 132.261 168.223 132.764 167.833 132.927C167.444 133.091 167.331 133.405 167.356 133.618C167.381 133.845 167.519 134.121 168.386 134.171C169.254 134.222 172.987 134.335 173.791 134.373C174.595 134.398 175.928 134.523 176.267 134.347C176.606 134.171 177.046 131.62 177.021 130.652C176.996 129.684 176.468 127.497 176.041 127.083" fill="#F1B9FF"/>
<path d="M177.511 127.133C177.511 127.133 174.759 126.982 172.874 126.944C170.988 126.894 169.882 126.794 169.254 126.944C168.625 127.095 167.846 127.284 167.896 127.724C167.947 128.164 168.286 128.402 169.153 128.402C170.02 128.402 172.434 128.302 172.534 128.503C172.635 128.691 169.92 128.893 169.392 129.031C168.864 129.182 168.625 129.37 168.65 129.609C168.676 129.848 168.952 130.087 169.379 130.112C169.794 130.137 171.328 130.225 171.328 130.225C171.328 130.225 168.512 130.64 168.097 130.841C167.683 131.042 167.507 131.431 167.544 131.645C167.57 131.871 168.16 132.311 168.663 132.261C169.166 132.211 170.586 132.261 170.586 132.261C170.586 132.261 168.223 132.764 167.833 132.927C167.444 133.091 167.331 133.405 167.356 133.618C167.381 133.845 167.519 134.121 168.386 134.171C169.254 134.222 172.987 134.335 173.791 134.373C174.595 134.398 175.928 134.523 176.267 134.347C176.606 134.171 177.046 131.62 177.021 130.652C176.996 129.684 176.468 127.497 176.041 127.083" stroke="#040222" stroke-width="0.88575" stroke-miterlimit="10" stroke-linecap="round" stroke-linejoin="round"/>
<path d="M174.47 130.527C174.47 130.527 173.326 131.645 172.421 132.223L174.47 130.527Z" fill="#AE90E8"/>
<path d="M174.47 130.527C174.47 130.527 173.326 131.645 172.421 132.223" stroke="#040222" stroke-width="0.88575" stroke-miterlimit="10" stroke-linecap="round" stroke-linejoin="round"/>
<path d="M113.8 132.236C114.567 132.864 115.359 133.932 115.145 135.654C114.906 137.665 113.373 140.984 112.305 143.133L117.194 142.705L119.13 132.097L113.8 132.236Z" fill="#040222"/>
<path d="M98.4287 137.226L100.641 139.362" stroke="#040222" stroke-width="0.88575" stroke-miterlimit="10" stroke-linecap="round" stroke-linejoin="round"/>
<path d="M103.142 127.799L101.244 131.746" stroke="#040222" stroke-width="0.88575" stroke-miterlimit="10" stroke-linecap="round" stroke-linejoin="round"/>
<path d="M109.313 121.402L111.752 123.765" stroke="#040222" stroke-width="0.88575" stroke-miterlimit="10" stroke-linecap="round" stroke-linejoin="round"/>
<path d="M121.38 114.703L119.507 118.046" stroke="#040222" stroke-width="0.88575" stroke-miterlimit="10" stroke-linecap="round" stroke-linejoin="round"/>
<path d="M114.944 114.703L115.258 112.201" stroke="#040222" stroke-width="0.88575" stroke-miterlimit="10" stroke-linecap="round" stroke-linejoin="round"/>
<path d="M130.09 108.154L131.611 111.208" stroke="#040222" stroke-width="0.88575" stroke-miterlimit="10" stroke-linecap="round" stroke-linejoin="round"/>
<path d="M138.159 118.511L135.72 121.854" stroke="#040222" stroke-width="0.88575" stroke-miterlimit="10" stroke-linecap="round" stroke-linejoin="round"/>
<path d="M131.61 135.026L129.637 137.829" stroke="#040222" stroke-width="0.88575" stroke-miterlimit="10" stroke-linecap="round" stroke-linejoin="round"/>
<path d="M140.597 127.799L141.967 131.746" stroke="#040222" stroke-width="0.88575" stroke-miterlimit="10" stroke-linecap="round" stroke-linejoin="round"/>
<path d="M125.829 146.363L127.877 149.581" stroke="#040222" stroke-width="0.88575" stroke-miterlimit="10" stroke-linecap="round" stroke-linejoin="round"/>
<path d="M144.393 142.177L142.495 145.194" stroke="#040222" stroke-width="0.88575" stroke-miterlimit="10" stroke-linecap="round" stroke-linejoin="round"/>
<path d="M149.119 147.972L149.496 149.58" stroke="#040222" stroke-width="0.88575" stroke-miterlimit="10" stroke-linecap="round" stroke-linejoin="round"/>
<path d="M150.941 135.026L153.254 132.513" stroke="#040222" stroke-width="0.88575" stroke-miterlimit="10" stroke-linecap="round" stroke-linejoin="round"/>
<path d="M150.941 113.458L148.729 116.374" stroke="#040222" stroke-width="0.88575" stroke-miterlimit="10" stroke-linecap="round" stroke-linejoin="round"/>
<path d="M140.069 106.131L138.687 108.154" stroke="#040222" stroke-width="0.88575" stroke-miterlimit="10" stroke-linecap="round" stroke-linejoin="round"/>
<path d="M132.83 102.146L133.244 99.7583" stroke="#040222" stroke-width="0.88575" stroke-miterlimit="10" stroke-linecap="round" stroke-linejoin="round"/>
<path d="M158.558 113.873L159.387 117.593" stroke="#040222" stroke-width="0.88575" stroke-miterlimit="10" stroke-linecap="round" stroke-linejoin="round"/>
<path d="M175.525 124.066L176.38 123.601" stroke="#040222" stroke-width="0.88575" stroke-miterlimit="10" stroke-linecap="round" stroke-linejoin="round"/>
<path d="M116.037 149.744L94.9346 274.375C94.9346 274.375 99.3085 274.941 104.437 274.941C109.565 274.941 112.242 274.702 112.242 274.702L131.61 179.381L130.441 273.206C130.441 273.206 131.522 274.388 135.079 274.011C138.636 273.634 139.013 273.445 141.451 273.445C143.89 273.445 145.951 273.445 147.447 272.503C147.447 272.503 147.66 262.988 147.887 259.444C148.125 255.899 148.502 245.279 148.854 238.668C149.206 232.044 149.244 217.213 149.47 210.476C149.709 203.739 150.627 189.624 151.217 182.184C151.808 174.743 152.688 156.745 152.675 154.608C152.65 152.484 152.876 149.744 152.876 149.744H116.037Z" fill="#040222" stroke="#040222" stroke-width="0.88575" stroke-miterlimit="10" stroke-linecap="round" stroke-linejoin="round"/>
<path d="M137.982 169.552C137.982 169.552 133.86 170.495 132.741 174.944C131.622 179.394 131.12 184.132 131.12 184.132" stroke="white" stroke-width="0.88575" stroke-miterlimit="10" stroke-linecap="round" stroke-linejoin="round"/>
<path d="M233.404 268.456C233.404 268.456 234.183 288.754 234.309 290.413C234.434 292.072 234.309 293.153 235.842 293.027C237.376 292.902 237.564 292.386 238.004 290.287C238.444 288.188 239.6 284.116 239.6 284.116C239.6 284.116 239.977 290.928 240.995 292.009C242.013 293.09 246.852 293.053 250.258 293.04C253.665 293.027 256.719 293.606 258.189 292.525C259.647 291.444 260.288 290.111 260.288 289.081C260.288 288.063 259.522 286.404 256.53 285.712C253.539 285.009 251.44 284.883 251.189 282.847C250.937 280.811 250.271 268.807 250.271 268.807L233.404 268.456Z" fill="#FAE900" stroke="#040222" stroke-width="0.88575" stroke-miterlimit="10" stroke-linecap="round" stroke-linejoin="round"/>
<path d="M183.179 268.292C183.179 268.292 181.545 277.128 180.942 279.202C180.339 281.263 177.674 283.589 174.658 284.795C171.641 286.002 169.316 287.12 169.404 289.785C169.492 292.45 171.302 292.022 175.424 291.846C179.559 291.67 182.475 291.758 183.946 290.816C185.404 289.873 188.081 286.68 188.081 286.68C188.081 286.68 187.302 290.728 187.302 290.979C187.302 291.23 187.993 291.846 189.363 291.721C190.733 291.595 191.424 292.098 192.467 288.226C193.498 284.355 197.193 268.456 197.193 268.456L183.179 268.292Z" fill="#FAE900" stroke="#040222" stroke-width="0.88575" stroke-miterlimit="10" stroke-linecap="round" stroke-linejoin="round"/>
<path d="M206.368 127.397C206.368 127.397 200.134 164.688 198.211 175.824C196.301 186.948 183.179 268.305 183.179 268.305C183.179 268.305 186.51 269.801 190.356 269.474C194.189 269.134 197.193 268.468 197.193 268.468C197.193 268.468 222.884 156.682 224.053 151.68C225.222 146.677 226.554 143.007 226.554 143.007L233.391 268.468C233.391 268.468 239.236 269.562 243.396 269.512C247.556 269.461 250.233 268.795 250.233 268.795L245.696 127.812L206.368 127.397Z" fill="#B7C2FF" stroke="#040222" stroke-width="0.88575" stroke-miterlimit="10" stroke-linecap="round" stroke-linejoin="round"/>
<path d="M207.713 140.079C207.713 140.079 209.913 138.822 210.541 138.143C211.17 137.464 212.1 134.699 212.012 132.764" stroke="#040222" stroke-width="0.88575" stroke-miterlimit="10" stroke-linecap="round" stroke-linejoin="round"/>
<path d="M226.566 142.995C227.723 139.325 230.915 137.728 234.108 137.477" stroke="#040222" stroke-width="0.88575" stroke-miterlimit="10" stroke-linecap="round" stroke-linejoin="round"/>
<path d="M267.892 85.0278L264.8 90.2187L260.992 89.276L260.075 85.43C260.075 85.43 261.319 81.8605 261.382 80.126C261.445 78.3915 262.035 76.6193 259.899 75.3876C257.762 74.1558 253.903 73.1126 253.162 72.9115C252.42 72.7104 252.043 72.4591 252.131 71.8935C252.219 71.3279 254.054 71.0514 255.173 71.2273C256.291 71.4158 261.269 73.3263 261.269 73.3263C261.269 73.3263 253.715 70.4103 252.848 70.1464C251.98 69.8825 252.458 69.4048 252.621 69.0404C252.785 68.6884 254.167 68.3742 256.291 69.1032C258.428 69.8322 261.382 71.3153 261.382 71.3153C261.382 71.3153 255.097 68.4622 253.614 68.0726C252.131 67.6829 253.174 66.9162 253.79 66.8785C254.419 66.8408 257.41 67.2807 258.881 68.0349C260.427 68.8267 261.809 69.4803 261.809 69.4803C261.809 69.4803 257.184 66.8785 253.815 66.4135C252.408 66.225 253.313 65.3452 254.18 65.32C255.047 65.2949 259.911 65.961 262.739 67.9846C265.555 70.0082 268.634 73.0498 268.546 75.8275C268.445 78.6052 267.892 85.0278 267.892 85.0278Z" fill="#F1B9FF" stroke="#040222" stroke-width="0.88575" stroke-miterlimit="10" stroke-linecap="round" stroke-linejoin="round"/>
<path d="M211.723 90.2438L206.369 127.397C206.369 127.397 222.431 128.352 226.139 128.088C229.847 127.812 245.709 127.812 245.709 127.812L244.879 99.7206C244.879 99.7206 250.171 111.812 255.801 111.812C261.432 111.812 263.77 101.103 265.002 96.2894C266.233 91.4881 267.88 85.0278 267.88 85.0278C265.127 85.983 260.05 85.4425 260.05 85.4425C260.05 85.4425 259.572 87.0891 259.22 88.3962C258.881 89.7033 256.266 97.3954 256.266 97.3954C251.805 88.1951 238.318 65.873 238.318 65.873H221.904L211.723 90.2438Z" fill="white" stroke="#040222" stroke-width="0.88575" stroke-miterlimit="10" stroke-linecap="round" stroke-linejoin="round"/>
<path d="M233.63 109.952C234.51 110.97 235.603 111.359 236.508 111.359C238.243 111.359 240.643 110.944 241.749 108.054C242.855 105.175 242.076 95.9248 242.076 95.9248C242.076 95.9248 240.694 95.6106 238.18 95.6106C235.666 95.6106 234.171 96.239 234.171 96.239C234.171 96.239 234.02 96.8046 233.793 97.873C233.793 97.873 231.229 96.968 229.646 99.0167C228.062 101.065 230.89 99.9217 231.229 99.8463C231.569 99.7708 233.467 99.4566 233.228 100.977C233.064 102.046 232.876 103.29 232.7 104.685C232.612 105.439 232.562 106.105 232.612 106.696C232.662 107.425 232.16 108.481 231.255 108.305C230.35 108.129 229.885 106.583 229.885 106.583L228.653 107.312C228.653 107.312 229.382 110.454 231.242 110.404C233.09 110.354 233.303 109.097 233.303 109.097C233.303 109.097 233.341 109.625 233.63 109.952Z" fill="#5D21D2" stroke="#040222" stroke-width="0.88575" stroke-miterlimit="10" stroke-linecap="round" stroke-linejoin="round"/>
<path d="M235.88 104.899L237.929 101.392" stroke="#040222" stroke-width="0.88575" stroke-miterlimit="10" stroke-linecap="round" stroke-linejoin="round"/>
<path d="M212.138 109.952C212.138 109.952 220.031 109.989 221.627 109.952C223.223 109.914 226.001 110.404 226.793 110.404C227.585 110.404 229.746 110.203 230.174 109.373C230.589 108.556 229.558 108.217 229.558 108.217C229.558 108.217 231.431 107.149 231.431 106.269C231.431 105.226 230.35 105.351 230.35 105.351C230.35 105.351 231.531 104.735 231.431 104.007C231.33 103.278 230.526 103.102 230.526 103.102C230.526 103.102 231.984 102.611 231.946 101.744C231.908 100.877 230.802 100.462 227.886 100.462C227.886 100.462 230.878 100.6 230.928 99.8337C230.978 99.067 229.307 98.2375 227.245 98.2752C225.184 98.3129 222.633 99.2178 221.363 101.116L215.066 101.078L210.629 102.737L210.793 108.443L212.138 109.952Z" fill="#F1B9FF" stroke="#040222" stroke-width="0.88575" stroke-miterlimit="10" stroke-linecap="round" stroke-linejoin="round"/>
<path d="M223.009 108.029C223.009 108.029 225.033 105.904 225.259 105.138" stroke="#040222" stroke-width="0.88575" stroke-miterlimit="10" stroke-linecap="round" stroke-linejoin="round"/>
<path d="M228.653 52.1731C228.653 52.1731 226.704 57.2132 226.114 59.0356C225.523 60.8581 224.291 63.8117 221.928 65.8604C219.578 67.9091 202.032 84.6004 196.778 89.0874C191.525 93.5745 186.786 99.5949 186.786 103.504C186.786 107.413 189.803 109.273 194.026 109.524C198.249 109.776 201.906 109.512 203.352 109.524C204.797 109.537 212.137 109.939 212.137 109.939C212.137 109.939 212.276 106.432 212.753 104.861C213.231 103.29 214.613 101.355 215.091 101.091C215.091 101.091 205.752 100.889 203.892 100.814C202.032 100.751 201.001 100.613 201.014 99.7206C201.014 99.2053 201.441 98.979 202.283 98.2249C206.356 94.58 218.045 85.1534 218.045 85.1534" fill="white"/>
<path d="M228.653 52.1731C228.653 52.1731 226.704 57.2132 226.114 59.0356C225.523 60.8581 224.291 63.8117 221.928 65.8604C219.578 67.9091 202.032 84.6004 196.778 89.0874C191.525 93.5745 186.786 99.5949 186.786 103.504C186.786 107.413 189.803 109.273 194.026 109.524C198.249 109.776 201.906 109.512 203.352 109.524C204.797 109.537 212.137 109.939 212.137 109.939C212.137 109.939 212.276 106.432 212.753 104.861C213.231 103.29 214.613 101.355 215.091 101.091C215.091 101.091 205.752 100.889 203.892 100.814C202.032 100.751 201.001 100.613 201.014 99.7206C201.014 99.2053 201.441 98.979 202.283 98.2249C206.356 94.58 218.045 85.1534 218.045 85.1534" stroke="#040222" stroke-width="0.88575" stroke-miterlimit="10" stroke-linecap="round" stroke-linejoin="round"/>
<path d="M228.075 77.7754C228.075 77.7754 230.123 79.2585 229.998 81.2318C229.872 83.1925 227.911 84.6882 227.911 84.6882" stroke="#040222" stroke-width="0.88575" stroke-miterlimit="10" stroke-linecap="round" stroke-linejoin="round"/>
<path d="M235.868 76.9836C235.868 76.9836 237.916 78.4668 237.791 80.44C237.665 82.4008 235.704 83.8964 235.704 83.8964" stroke="#040222" stroke-width="0.88575" stroke-miterlimit="10" stroke-linecap="round" stroke-linejoin="round"/>
<path d="M244.892 99.7204L244.401 84.3992" stroke="#040222" stroke-width="0.88575" stroke-miterlimit="10" stroke-linecap="round" stroke-linejoin="round"/>
<path d="M256.291 97.3826L255.16 100.6" stroke="#040222" stroke-width="0.88575" stroke-miterlimit="10" stroke-linecap="round" stroke-linejoin="round"/>
<path d="M258.956 89.3386C258.956 89.3386 264.712 89.5146 266.786 89.3386" stroke="#040222" stroke-width="0.88575" stroke-miterlimit="10" stroke-linecap="round" stroke-linejoin="round"/>
<path d="M207.713 109.712C207.713 109.712 207.713 107.174 208.48 104.547C208.983 102.837 210.529 100.99 210.529 100.99" stroke="#040222" stroke-width="0.88575" stroke-miterlimit="10" stroke-linecap="round" stroke-linejoin="round"/>
<path d="M218.435 85.2033C218.233 84.7257 218.296 84.9645 217.605 85.5175C217.077 85.9449 213.47 88.886 211.723 90.3062L210.868 96.2261C211.019 96.1758 211.182 96.1255 211.346 96.0376C212.452 95.472 217.203 88.446 217.479 88.1067C217.768 87.7548 218.623 85.6684 218.435 85.2033Z" fill="#040222"/>
<path d="M237.287 90.6587C238.984 90.6587 239.939 88.8111 239.939 87.9312C239.939 87.0514 239.286 85.7066 239.286 85.7066C239.286 85.7066 240.517 84.4748 240.517 83.4191C240.517 82.3633 239.638 81.4709 239.638 81.4709C239.638 81.4709 240.517 79.7239 240.517 78.6178C240.517 77.5118 239.261 76.9839 238.029 76.9839C236.797 76.9839 235.452 78.2408 235.452 79.1583C235.452 80.0758 236.144 80.7671 236.144 81.0687C236.144 81.3704 235.025 83.042 235.025 83.8841C235.025 84.7262 235.854 85.87 235.854 86.3853C235.854 86.9006 235.025 87.9815 235.025 89.1881C235.025 90.3947 236.382 90.6587 237.287 90.6587Z" fill="white" stroke="#040222" stroke-width="0.88575" stroke-miterlimit="10" stroke-linecap="round" stroke-linejoin="round"/>
<path d="M238.582 39.1648H234.862L231.707 43.677L231.116 45.3109C230.89 45.1098 230.576 44.9967 230.149 45.0847C228.942 45.336 228.351 48.0257 228.301 48.7296C228.251 49.4334 227.823 51.6455 228.64 52.1734C228.64 52.1734 226.692 57.2135 226.101 59.0359C225.498 60.8584 224.279 63.8121 221.916 65.8608H238.331L236.156 61.9016C236.156 61.9016 238.255 61.5246 239.751 60.4059C241.247 59.2999 242.039 58.0682 242.579 52.915C243.119 47.7492 243.333 43.2371 243.333 43.2371L243.61 41.1884L238.582 39.1648Z" fill="#F1B9FF" stroke="#040222" stroke-width="0.88575" stroke-miterlimit="10" stroke-linecap="round" stroke-linejoin="round"/>
<path d="M224.53 31.0198C224.53 31.0198 223.776 31.9499 221.69 31.7111C219.603 31.4848 217.756 29.6875 217.467 26.847C217.178 24.0065 220.244 20.4872 222.959 20.2484C225.674 20.0222 228.05 23.2021 227.358 27.7645C227.358 27.7645 228.917 26.4951 231.003 27.0104C233.09 27.5257 234.874 29.8509 234.422 33.898C233.969 37.9452 230.488 40.0819 227.886 39.8556C225.284 39.6294 222.507 36.1604 224.53 31.0198Z" fill="#040222"/>
<path d="M230.148 45.0846C230.148 45.0846 230.312 41.9424 231.179 40.7232C232.034 39.504 233.819 36.0979 238.544 36.1985C243.27 36.299 243.635 38.9762 243.698 39.7051C243.76 40.4341 244.087 42.9102 243.283 43.2495L243.358 41.9549C243.358 41.9549 242.881 42.2943 242.491 42.2943C242.101 42.2943 241.624 41.5905 241.624 41.5905C241.624 41.5905 241.134 42.3948 240.367 42.3948C239.6 42.3948 239.361 41.6659 239.361 41.6659C239.361 41.6659 239.085 42.2315 238.519 42.2315C237.954 42.2315 237.715 41.4271 237.715 41.4271C237.715 41.4271 237.363 42.156 236.471 42.156C235.591 42.156 235.289 40.6227 235.289 40.0194C235.289 39.4161 233.756 41.3391 233.265 42.7719C232.775 44.2047 232.071 48.2393 232.021 48.3776C231.971 48.5158 231.745 48.5912 231.531 48.3399C231.317 48.0885 231.179 46.8693 231.154 46.3163C231.154 45.7381 230.701 44.7955 230.148 45.0846Z" fill="#040222"/>
<path d="M230.839 51.834C230.839 51.834 229.469 52.7012 228.652 52.1733C227.835 51.6454 228.263 49.4333 228.313 48.7295C228.363 48.0256 228.954 45.3359 230.161 45.0846C231.367 44.8332 231.669 46.2283 231.719 46.5551" stroke="#040222" stroke-width="0.88575" stroke-miterlimit="10" stroke-linecap="round" stroke-linejoin="round"/>
<path d="M236.471 53.2666C236.471 53.2666 236.697 55.5667 238.306 55.5667C239.927 55.5667 240.606 53.2666 240.606 53.2666" stroke="#040222" stroke-width="0.442875" stroke-miterlimit="10" stroke-linecap="round" stroke-linejoin="round"/>
<path d="M238.645 44.3305C238.645 44.3305 238.004 43.8655 235.842 43.8655C234.284 43.8655 232.512 45.1349 232.512 46.7437C232.512 48.2143 233.153 49.6722 236.207 49.6722C239.06 49.6722 240.229 48.2394 240.229 46.8945C240.229 45.8011 239.927 45.0469 238.645 44.3305Z" fill="white"/>
<path d="M238.645 44.3305C238.645 44.3305 238.004 43.8655 235.842 43.8655C234.284 43.8655 232.512 45.1349 232.512 46.7437C232.512 48.2143 233.153 49.6722 236.207 49.6722C239.06 49.6722 240.229 48.2394 240.229 46.8945C240.229 45.7885 240.191 44.9715 239.186 44.0791" stroke="#040222" stroke-width="0.442875" stroke-miterlimit="10" stroke-linecap="round" stroke-linejoin="round"/>
<path d="M244.062 44.0159C243.27 44.0159 241.109 44.0787 240.832 46.781C240.606 48.9805 242.881 49.2696 243.836 49.257C244.791 49.2319 246.501 48.2138 246.501 46.781C246.501 45.3482 245.168 44.0159 244.062 44.0159Z" fill="white"/>
<path d="M243.811 44.4558C243.811 44.4558 241.096 44.0788 240.832 46.7811C240.606 48.9806 242.881 49.2697 243.836 49.2571C244.791 49.232 246.501 48.2139 246.501 46.7811C246.501 45.3482 245.168 43.8777 244.087 43.8777" stroke="#040222" stroke-width="0.442875" stroke-miterlimit="10" stroke-linecap="round" stroke-linejoin="round"/>
<path d="M232.399 60.2926C230.739 58.6586 231.029 55.8055 231.029 55.8055V55.7678C230.601 56.7985 229.96 58.5329 229.935 59.9155C229.885 62.0019 231.154 63.5353 232.662 63.8872C233.856 64.1763 235.955 63.8495 237.124 63.6358L236.194 61.5243C234.837 61.6248 233.718 61.5997 232.399 60.2926Z" fill="#040222"/>
<path d="M228.653 52.1733C228.653 52.1733 227.672 54.6996 226.893 56.8237C227.044 57.0877 227.232 57.2636 227.459 57.2511C228.288 57.2259 230.337 55.2149 230.425 52.0476C229.96 52.2613 229.181 52.5127 228.653 52.1733Z" fill="#040222"/>
<path d="M235.742 49.0311C235.742 49.0311 235.478 48.0884 235.629 46.9949C235.779 45.9015 236.244 44.2047 236.307 44.1167C236.37 44.0287 236.559 43.7145 236.521 44.3807C236.483 45.0594 236.207 46.9824 236.144 47.5857C236.081 48.189 235.955 49.0436 235.742 49.0311Z" fill="#040222"/>
<path d="M243.66 48.8427C243.66 48.8427 243.094 48.2645 243.233 46.8819C243.371 45.4994 243.472 44.8835 243.647 44.6698C243.823 44.4562 243.836 46.3163 243.823 46.8945C243.798 47.4727 243.874 48.6918 243.66 48.8427Z" fill="#040222"/>
<path d="M329.793 283.877C329.793 283.877 328.272 281.878 328.272 279.616C328.272 277.354 328.976 276.65 329.793 276.524C330.61 276.398 332.646 277.303 331.98 279.842C331.314 282.381 329.793 283.877 329.793 283.877Z" stroke="#040222" stroke-width="0.88575" stroke-miterlimit="10" stroke-linecap="round" stroke-linejoin="round"/>
<path d="M332.168 273.256H351.273V282.934L334.519 286.68L330.962 284.065C330.962 284.065 331.716 276.461 331.779 275.833C331.842 275.192 332.168 273.256 332.168 273.256Z" fill="#AE90E8" stroke="#040222" stroke-width="0.88575" stroke-miterlimit="10" stroke-linecap="round" stroke-linejoin="round"/>
<path d="M324.313 295.717C324.313 295.717 339.459 295.277 342.764 295.214C346.07 295.151 350.683 294.774 350.683 294.774L351.273 282.922C351.273 282.922 351.613 279.013 350.28 279.113C345.907 279.44 337.712 284.292 335.65 284.292C333.589 284.292 334.645 282.017 334.356 281.162C333.991 280.069 332.785 279.252 331.289 280.006C329.969 280.672 329.542 282.168 328.486 282.595C327.431 283.035 324.804 283.965 324.804 283.965L322.617 295.692H324.313V295.717Z" fill="white" stroke="#040222" stroke-width="0.88575" stroke-miterlimit="10" stroke-linecap="round" stroke-linejoin="round"/>
<path d="M350.281 279.126C345.907 279.453 337.712 284.304 335.651 284.304C333.589 284.304 334.645 282.03 334.356 281.175C333.992 280.081 332.785 279.264 331.289 280.019C329.97 280.685 329.542 282.18 328.486 282.608C328.223 282.721 327.845 282.859 327.443 283.01L326.174 293.442C329.63 293.404 341.307 293.304 341.948 293.354C342.714 293.404 346.661 293.002 348.031 292.901C348.672 292.851 349.778 292.713 350.796 292.562L351.274 282.922C351.274 282.934 351.613 279.026 350.281 279.126Z" fill="#040222"/>
<path d="M322.617 293.128C326.073 293.09 341.306 292.939 341.947 292.977C342.714 293.027 346.661 292.625 348.031 292.525C348.672 292.474 349.778 292.336 350.796 292.185" stroke="#040222" stroke-width="0.88575" stroke-miterlimit="10" stroke-linecap="round" stroke-linejoin="round"/>
<path d="M306.252 273.646L304.48 282.419L309.998 288.113L322.629 286.893L326.148 281.338L327.179 273.646H306.252Z" fill="#AE90E8" stroke="#040222" stroke-width="0.88575" stroke-miterlimit="10" stroke-linecap="round" stroke-linejoin="round"/>
<path d="M293.884 282.683C293.884 282.683 297.705 280.433 303.235 284.329C303.235 284.329 303.499 281.036 302.632 279.39C301.777 277.743 299.452 277.63 299.452 277.63C299.452 277.63 298.924 279.691 299.754 281.087C300.571 282.494 303.902 284.656 303.902 284.656" stroke="#040222" stroke-width="0.88575" stroke-miterlimit="10" stroke-linecap="round" stroke-linejoin="round"/>
<path d="M324.313 295.717C323.949 295.717 314.434 295.905 305.586 296.031C296.964 296.157 288.065 296.031 288.065 296.031C288.065 296.031 287.135 289.784 293.118 288.301C298.17 287.044 302.758 286.139 303.902 283.475C305.045 280.823 305.787 280.596 307.371 280.596C308.954 280.596 309.935 281.313 309.935 283.613C309.935 285.699 312.511 286.076 313.919 285.511C321.146 282.595 326.136 281.338 326.136 281.338L324.313 295.717Z" fill="white" stroke="#040222" stroke-width="0.88575" stroke-miterlimit="10" stroke-linecap="round" stroke-linejoin="round"/>
<path d="M306.529 293.442C308.25 293.341 320.756 293.127 321.598 293.077C322.101 293.039 323.572 293.052 324.653 293.065L326.148 281.338C326.148 281.338 321.159 282.595 313.932 285.511C312.524 286.076 309.947 285.699 309.947 283.613C309.947 281.313 308.954 280.596 307.383 280.596C305.8 280.596 305.058 280.81 303.914 283.475C302.77 286.127 298.183 287.044 293.13 288.301C289.284 289.256 288.291 292.172 288.078 294.146C291.76 294.007 305.045 293.53 306.529 293.442Z" fill="#040222"/>
<path d="M343.845 59.1736L345.479 65.1815L338.202 67.1673L329.354 66.4383L328.21 51.3182C328.21 51.3182 322.24 51.7455 322.001 51.7455C321.762 51.7455 321.435 51.5193 321.209 51.5318C320.983 51.5444 320.543 51.6072 320.266 51.4438C319.99 51.2804 319.713 50.916 319.713 50.5263C319.713 49.9482 320.706 49.0306 321.008 48.5405C321.31 48.0503 321.9 46.9065 322.064 46.1021C322.227 45.2852 322.453 44.7699 322.642 44.5813L323.308 41.7534L339.132 41.5774L343.845 59.1736Z" fill="#FAE900"/>
<path d="M322.655 44.5688C322.453 44.7574 322.24 45.2727 322.076 46.0897C321.913 46.9066 321.31 48.0378 321.021 48.528C320.732 49.0182 319.726 49.9231 319.726 50.5139C319.726 50.9161 320.003 51.268 320.279 51.4314C320.556 51.5948 320.983 51.5445 321.222 51.5194C321.461 51.4942 321.775 51.733 322.014 51.733C322.252 51.733 328.223 51.3057 328.223 51.3057L329.366 66.4259L338.215 67.1548L345.492 65.169L343.858 59.1611" stroke="#040222" stroke-width="0.88575" stroke-miterlimit="10" stroke-linecap="round" stroke-linejoin="round"/>
<path d="M324.54 45.3606C324.54 45.3606 324.225 46.7934 325.13 46.7934C326.4 46.7934 326.299 45.7125 326.299 45.7125" stroke="#040222" stroke-width="0.442875" stroke-miterlimit="10" stroke-linecap="round" stroke-linejoin="round"/>
<path d="M325.168 65.5208C323.095 65.5208 320.065 64.0502 320.065 60.4933C320.065 56.9363 321.611 51.6197 321.611 51.6197C321.611 51.6197 322.604 51.2804 323.346 51.1798C324.075 51.0793 326.903 50.7902 327.644 50.7902C328.373 50.7902 328.901 49.923 329.165 49.3825C329.429 48.8295 329.58 48.2513 330.133 48.2513C330.686 48.2513 330.912 48.5153 331.051 49.0054C331.176 49.5082 331.516 49.9984 332.433 49.9984C333.351 49.9984 333.527 48.4273 333.527 47.1201C333.527 45.813 333.476 44.6818 333.062 44.6818C332.647 44.6818 331.44 45.26 331.44 45.9638C331.44 46.6677 331.226 47.5349 330.862 47.5349C330.497 47.5349 329.869 46.8813 329.869 45.6999C329.869 44.5184 330.12 42.9473 329.379 42.9473C328.637 42.9473 326.777 43.3118 324.917 43.3118C323.057 43.3118 321.31 41.8664 321.31 40.0188C321.31 38.1586 322.956 36.952 323.145 36.8515C323.333 36.7509 323.333 37.0023 323.962 36.9269C324.59 36.8515 326.475 36.4619 327.28 36.4242C328.097 36.399 330.686 36.1853 332.094 36.0848C333.501 35.9843 336.153 35.6952 337.875 36.399C339.597 37.1029 341.005 38.5985 341.872 44.6818C342.739 50.7651 344.537 59.2238 344.864 60.5938C345.19 61.9638 343.959 62.3534 341.545 62.542C339.132 62.7179 336.794 62.8687 335.424 60.4556C334.054 58.0424 333.979 57.0369 333.841 57.0369C333.703 57.0369 333.878 59.6637 332.333 61.7501C330.761 63.8617 330.045 65.5208 325.168 65.5208Z" fill="#040222"/>
<path d="M321.385 55.453L321.108 57.3257C321.108 57.3257 322.139 57.0492 323.069 57.0492C323.999 57.0492 325.005 56.735 325.407 55.7169C325.797 54.6863 325.281 54.7366 324.967 55.0131C324.64 55.2896 324.2 55.4279 322.943 55.4404C321.674 55.453 321.385 55.453 321.385 55.453Z" fill="white"/>
<path d="M324.175 55.051L324.087 57.238" stroke="#040222" stroke-width="0.88575" stroke-miterlimit="10" stroke-linecap="round" stroke-linejoin="round"/>
<path d="M322.516 55.177L322.365 57.5274" stroke="#040222" stroke-width="0.88575" stroke-miterlimit="10" stroke-linecap="round" stroke-linejoin="round"/>
<path d="M338.352 174.969C337.975 180.713 334.72 203.865 334.142 210.941C333.564 218.017 327.179 273.646 327.179 273.646H306.252L317.35 131.67H355.685L351.286 273.257H332.181C332.181 273.257 332.546 267.148 332.407 264.245C332.269 261.342 332.948 251.463 333.287 247.943C333.627 244.424 334.305 238.404 334.444 235.161C334.582 231.918 334.783 226.979 335.047 224.339C335.323 221.7 335.587 208.302 335.587 205.461C335.587 202.621 337.749 182.31 338.139 177.571L338.352 174.969Z" fill="white"/>
<path d="M347.691 142.366C347.691 150.586 341.57 154.859 340.363 157.562C339.383 159.736 338.742 169.238 338.365 174.969C337.988 180.701 334.733 203.865 334.155 210.941C333.576 218.017 327.191 273.646 327.191 273.646H306.252L317.35 131.67H355.685L351.286 273.257H332.181C332.181 273.257 332.546 267.148 332.407 264.245C332.269 261.342 332.948 251.463 333.287 247.943C333.627 244.424 334.305 238.404 334.444 235.161C334.582 231.918 334.783 226.979 335.047 224.339C335.323 221.7 335.587 208.302 335.587 205.461C335.587 202.621 337.749 182.31 338.139 177.571" stroke="#040222" stroke-width="0.88575" stroke-miterlimit="10" stroke-linecap="round" stroke-linejoin="round"/>
<path d="M321.209 139.777C321.209 143.158 320.63 147.545 326.978 147.545" stroke="#040222" stroke-width="0.88575" stroke-miterlimit="10" stroke-linecap="round" stroke-linejoin="round"/>
<path d="M286.607 98.3626C286.607 98.3626 288.203 97.7844 290.893 97.7844C293.582 97.7844 295.053 98.0735 295.053 98.0735C295.053 98.0735 295.882 106.583 294.701 109.247C293.519 111.899 290.955 112.289 289.095 112.289C287.235 112.289 284.332 111.107 285.036 106.143C285.739 101.178 286.607 98.3626 286.607 98.3626Z" fill="white" stroke="#040222" stroke-width="0.88575" stroke-miterlimit="10" stroke-linecap="round" stroke-linejoin="round"/>
<path d="M292.3 92.7069C293.444 92.7069 295.329 90.9849 295.329 89.7155C295.329 88.4461 295.166 87.8805 295.166 86.6739C295.166 85.5553 296.083 86.0831 296.083 84.5875C296.083 83.0918 295.505 82.7399 295.505 81.8726C295.505 81.0054 296.875 80.8168 296.875 79.2835C296.875 77.9763 297.742 77.6872 297.742 76.9205C297.742 76.1538 295.706 75.2363 294.198 75.2363C292.388 75.2363 293.444 78.4414 293.444 79.0572C293.444 79.8993 291.546 80.025 291.546 81.4578C291.546 83.23 292.589 83.8836 292.589 85.0022C292.589 86.2214 290.49 87.3903 290.49 88.7351C290.515 90.0549 290.993 92.7069 292.3 92.7069Z" fill="white" stroke="#040222" stroke-width="0.88575" stroke-miterlimit="10" stroke-linecap="round" stroke-linejoin="round"/>
<path d="M304.454 107.274C304.454 107.274 303.486 103.918 303.285 102.397C303.084 100.876 303.21 97.9353 301.174 97.7844C299.138 97.6336 297.265 97.3194 296.209 97.4325C295.153 97.5456 295.153 97.8598 295.191 98.3752C295.229 98.8779 295.744 99.079 296.171 99.079C296.599 99.079 300.52 99.1921 300.52 99.1921C300.52 99.1921 296.8 99.079 296.171 99.079C295.543 99.079 295.091 98.7145 294.424 98.9156C293.758 99.1167 292.589 99.5818 292.589 100.411C292.589 101.241 293.507 101.442 293.507 101.442C293.507 101.442 292.3 101.869 292.3 102.649C292.3 103.428 292.966 103.679 292.966 103.679C292.966 103.679 292.3 104.144 292.3 105.087C292.3 106.03 293.444 106.608 294.45 106.583C295.455 106.557 295.97 106.583 295.97 106.583L297.014 112.905L301.463 112.163L304.454 107.274Z" fill="#FAE900" stroke="#040222" stroke-width="0.88575" stroke-miterlimit="10" stroke-linecap="round" stroke-linejoin="round"/>
<path d="M338.729 64.6157C343.92 64.6157 349.538 64.7037 353.611 69.3793C357.683 74.0548 375.065 98.6267 377.491 102.259C379.917 105.891 383.549 110.479 383.549 114.551C383.549 118.624 380.608 122.595 376.285 122.595C371.961 122.595 362.698 122.595 362.698 122.595C362.698 122.595 366.154 121.552 366.154 116.273C366.154 110.994 361.139 110.303 361.139 110.303L363.653 110.215L355.697 100.261V131.67H317.362L319.097 112.804C319.097 112.804 314.597 122.583 313.215 125.096C311.832 127.61 310.01 129.42 305.686 129.42C301.362 129.42 299.804 126.052 299.113 123.023C298.421 119.994 297.215 113.508 297.039 112.905C296.863 112.301 301.362 106.671 302.582 106.331C303.788 105.979 304.228 106.243 304.479 107.287C304.743 108.33 305.862 112.993 305.862 112.993C305.862 112.993 313.039 92.4806 314.861 87.3777C316.684 82.2748 320.555 64.6157 338.729 64.6157Z" fill="#AE90E8" stroke="#040222" stroke-width="0.88575" stroke-miterlimit="10" stroke-linecap="round" stroke-linejoin="round"/>
<path d="M319.084 112.804L330.799 86.2839" stroke="#040222" stroke-width="0.88575" stroke-miterlimit="10" stroke-linecap="round" stroke-linejoin="round"/>
<path d="M355.685 100.26C355.685 100.26 355.786 91.2236 355.685 88.2951C355.584 85.3791 354.416 76.7444 353.108 74.7334" stroke="#040222" stroke-width="0.88575" stroke-miterlimit="10" stroke-linecap="round" stroke-linejoin="round"/>
<path d="M363.641 110.215L375.832 110.718" stroke="#040222" stroke-width="0.88575" stroke-miterlimit="10" stroke-linecap="round" stroke-linejoin="round"/>
<path d="M367.173 122.583C368.87 122.319 370.981 120.974 370.981 116.172C370.981 111.371 367.826 110.391 367.826 110.391" stroke="#040222" stroke-width="0.88575" stroke-miterlimit="10" stroke-linecap="round" stroke-linejoin="round"/>
<path d="M304.907 109.096C304.907 109.096 302.469 110.353 300.872 112.289C299.125 114.4 297.856 117.002 297.856 117.002" stroke="#040222" stroke-width="0.88575" stroke-miterlimit="10" stroke-linecap="round" stroke-linejoin="round"/>
<path d="M346.346 91.6384L342.173 100.876" stroke="#040222" stroke-width="0.88575" stroke-miterlimit="10" stroke-linecap="round" stroke-linejoin="round"/>
<path d="M330.798 86.2839L319.084 112.804L318.204 122.419C324.551 112.452 330.798 86.2839 330.798 86.2839Z" fill="#040222"/>
<path d="M366.154 116.273C366.154 111.183 361.491 110.353 361.152 110.303C361.139 110.303 361.127 110.303 361.127 110.303C355.672 110.366 349.702 109.913 346.761 115.029C343.832 120.144 345.667 130.451 345.969 132.135C346.258 133.807 346.886 134.862 347.515 134.774C348.143 134.686 348.143 132.851 347.98 131.255C347.816 129.659 347.892 125.385 347.892 125.385C347.892 125.385 347.892 130.162 348.269 131.758C348.646 133.354 349.274 133.681 349.651 133.643C350.028 133.605 350.531 133.769 350.318 130.589C350.104 127.409 350.066 125.034 350.066 125.034C350.066 125.034 350.443 131.393 350.531 132.562C350.619 133.731 350.871 134.234 351.373 134.158C351.876 134.07 352.253 132.524 352.127 130.727C352.002 128.93 351.662 124.644 351.662 124.644C351.662 124.644 352.253 132.022 352.58 132.776C352.919 133.53 353.171 133.907 353.623 133.781C354.088 133.656 354.503 132.688 354.465 130.601C354.428 128.502 354.126 122.721 354.214 122.218C354.302 121.715 357.23 122.256 359.078 122.344C360.926 122.432 362.673 122.62 362.673 122.62C362.673 122.62 366.154 121.539 366.154 116.273Z" fill="#FAE900" stroke="#040222" stroke-width="0.88575" stroke-miterlimit="10" stroke-linecap="round" stroke-linejoin="round"/>
<path d="M357.884 122.268C357.884 122.268 358.01 121.514 357.809 120.396C357.62 119.277 356.891 118.209 355.81 118.284C354.729 118.359 353.787 120.433 353.837 122.532C353.862 123.638 354.076 121.992 354.88 122.017C355.886 122.042 357.884 122.268 357.884 122.268Z" fill="#040222"/>
</g>
<defs>
<clipPath id="clip0">
<rect width="382.956" height="296.898" fill="white" transform="translate(0.958008)"/>
</clipPath>
</defs>
</svg>
