<?xml version="1.0" standalone="no"?>
<svg
  width="600"
  height="600"
  viewBox="0 0 600 600"
  xmlns="http://www.w3.org/2000/svg"
>
  <g transform="translate(300,300)">
    <path d="M107.2,-145.1C149.5,-139.6,201.6,-127.7,231.6,-95.9C261.6,-64,269.4,-12.1,252.1,29C234.9,70,192.6,100.2,152.4,113.7C112.1,127.2,73.8,124,37.4,140.9C1,157.7,-33.4,194.5,-69.8,200.7C-106.2,207,-144.6,182.7,-157.8,147.7C-171.1,112.7,-159.3,67,-169.3,22.1C-179.3,-22.8,-211.1,-66.9,-210.6,-108C-210.2,-149.1,-177.6,-187.3,-137.1,-193.6C-96.6,-200,-48.3,-174.5,-7.9,-162.1C32.4,-149.8,64.9,-150.6,107.2,-145.1Z" fill="#ffc107" />
  </g>
</svg>
  