<?xml version="1.0" standalone="no"?>
<!DOCTYPE svg PUBLIC "-//W3C//DTD SVG 20010904//EN"
 "http://www.w3.org/TR/2001/REC-SVG-20010904/DTD/svg10.dtd">
<svg version="1.0" xmlns="http://www.w3.org/2000/svg"
 width="1200.000000pt" height="1200.000000pt" viewBox="0 0 1200.000000 1200.000000"
 preserveAspectRatio="xMidYMid meet">
<metadata>
Created by potrace 1.11, written by Peter Selinger 2001-2013
</metadata>
<g transform="translate(0.000000,1200.000000) scale(0.100000,-0.100000)"
fill="#000000" stroke="none">
<path d="M0 6000 l0 -6000 6000 0 6000 0 0 6000 0 6000 -6000 0 -6000 0 0
-6000z m2664 1324 c305 -46 578 -174 751 -352 64 -65 134 -173 163 -251 32
-87 37 -247 9 -298 -23 -43 -80 -95 -120 -110 -45 -16 -379 -17 -432 0 -89 27
-140 76 -208 199 -62 111 -152 172 -299 203 -103 22 -908 22 -1003 0 -148 -35
-225 -118 -225 -245 0 -155 213 -260 735 -360 467 -90 860 -195 1055 -282 96
-43 117 -53 175 -87 127 -74 221 -155 294 -254 52 -71 74 -116 106 -219 26
-83 27 -96 23 -235 -4 -112 -10 -167 -27 -228 -104 -373 -426 -573 -1021 -636
-140 -15 -962 -21 -1111 -9 -213 18 -421 76 -608 170 -145 73 -174 94 -277
197 -62 63 -91 101 -122 165 -54 109 -65 155 -66 263 0 80 2 96 26 135 14 25
39 54 55 66 61 44 89 49 278 48 171 -1 184 -2 235 -26 70 -32 139 -102 181
-184 30 -58 95 -134 115 -134 4 0 15 -6 23 -14 23 -21 119 -57 171 -64 25 -4
284 -7 575 -7 l530 0 70 33 c111 52 145 102 145 212 0 58 -4 72 -29 107 -16
23 -45 52 -63 66 -67 51 -307 134 -493 171 -137 27 -463 95 -556 116 -587 131
-922 289 -1093 514 -69 91 -100 153 -125 254 -38 147 -20 392 38 541 52 129
183 281 302 347 19 10 36 22 39 25 7 8 156 69 220 89 219 71 399 87 994 89
379 1 488 -2 570 -15z m4178 -22 c50 -23 94 -82 107 -143 14 -64 14 -214 0
-278 -14 -66 -44 -109 -99 -140 l-45 -26 -520 -3 -520 -2 -5 -1203 -5 -1202
-22 -34 c-34 -54 -94 -88 -166 -96 -34 -4 -157 -5 -272 -3 -208 3 -210 3 -257
30 -25 15 -57 45 -70 65 l-23 38 -5 1202 -5 1203 -520 2 c-513 3 -521 3 -561
25 -22 12 -54 41 -70 65 -29 43 -29 45 -32 206 -3 153 -2 165 20 209 15 31 38
56 67 75 l45 28 1460 0 c1362 -1 1464 -2 1498 -18z m1693 -3 c75 -42 132 -119
169 -229 14 -41 57 -167 97 -280 39 -113 79 -230 89 -260 46 -136 171 -499
300 -870 39 -113 87 -254 107 -313 20 -59 40 -106 46 -104 5 1 20 32 32 67 12
36 52 153 88 260 73 214 174 506 292 845 42 121 92 265 110 320 92 274 138
402 155 434 26 50 80 102 132 129 45 22 47 22 559 22 569 0 534 4 594 -65 57
-67 55 -6 55 -1516 0 -1543 5 -1437 -70 -1509 -55 -52 -99 -60 -349 -60 -239
0 -274 7 -331 69 -20 21 -41 56 -48 78 -9 30 -12 311 -12 1122 0 714 -3 1081
-10 1081 -5 0 -10 -7 -10 -15 0 -8 -4 -23 -10 -33 -5 -9 -19 -46 -31 -82 -11
-36 -36 -108 -56 -160 -19 -52 -57 -158 -84 -235 -27 -77 -53 -149 -59 -160
-5 -11 -16 -40 -24 -65 -17 -51 -39 -113 -271 -765 -92 -258 -171 -479 -175
-490 -5 -11 -21 -54 -36 -95 -36 -99 -74 -153 -137 -195 -66 -44 -126 -55
-296 -55 -231 1 -292 18 -377 106 -41 43 -53 74 -241 604 -25 69 -65 181 -89
250 -25 69 -47 132 -49 140 -4 14 -27 78 -112 310 -19 52 -41 116 -48 142 -8
25 -18 55 -24 66 -5 10 -26 66 -45 123 -20 57 -65 185 -101 284 -36 99 -65
184 -65 188 0 4 -9 27 -19 50 -11 24 -23 55 -26 70 -4 15 -11 27 -16 27 -5 0
-10 -484 -11 -1107 l-3 -1108 -23 -40 c-27 -47 -76 -83 -129 -96 -54 -12 -432
-11 -492 2 -34 7 -61 21 -85 45 -73 71 -68 -48 -67 1526 0 1382 1 1419 20
1455 20 39 60 81 96 102 14 8 170 10 540 8 461 -2 523 -4 550 -18z m-2020
-3633 c50 -23 84 -65 92 -111 l6 -35 -57 0 c-48 0 -56 3 -56 18 0 10 -11 29
-24 41 -19 18 -33 22 -76 19 -44 -2 -56 -8 -73 -30 -17 -23 -19 -33 -11 -55 8
-23 24 -33 84 -56 180 -69 202 -89 208 -182 4 -64 4 -65 -35 -104 -47 -47
-105 -65 -188 -58 -101 8 -179 60 -195 131 -4 19 -5 37 -2 40 3 4 26 6 52 6
44 0 47 -2 59 -36 16 -44 66 -69 124 -61 51 7 77 32 77 73 0 38 -30 66 -88 84
-20 7 -67 25 -103 42 -52 24 -71 39 -88 68 -66 119 32 234 194 227 33 -2 78
-11 100 -21z m922 8 c56 -19 129 -84 142 -128 30 -98 18 -275 -22 -333 -12
-18 -42 -48 -67 -65 -42 -31 -50 -33 -125 -32 -109 0 -163 32 -209 122 -22 44
-26 64 -26 141 0 128 14 181 60 234 62 70 153 92 247 61z m1495 -5 c38 -19 79
-62 94 -98 23 -55 19 -68 -23 -73 -51 -7 -60 -2 -73 38 -16 46 -45 64 -105 64
-41 0 -56 -5 -73 -22 -31 -34 -45 -106 -40 -212 3 -83 7 -98 31 -129 57 -75
161 -50 191 46 4 13 17 17 57 17 l51 0 -7 -37 c-30 -169 -287 -208 -390 -61
-29 41 -30 48 -34 172 -2 79 1 144 8 168 20 64 69 110 151 142 23 9 137 -2
162 -15z m-1850 -28 c4 -50 1 -51 -147 -44 l-114 6 -6 -25 c-3 -13 -5 -47 -3
-74 l3 -49 115 -5 115 -5 3 -29 c2 -16 0 -32 -5 -37 -5 -5 -53 -9 -108 -10
-55 0 -106 -6 -112 -11 -14 -12 -18 -125 -5 -145 5 -8 49 -13 137 -15 l130 -3
3 -37 3 -38 -195 0 -196 0 0 264 c0 145 3 271 6 280 5 14 31 16 189 16 l183 0
4 -39z m1028 -1 l0 -39 -87 -3 -88 -3 -3 -237 -2 -238 -55 0 -55 0 0 240 0
240 -44 -6 c-25 -4 -65 -3 -90 0 -49 8 -48 6 -37 79 0 4 105 7 231 7 l230 0 0
-40z m448 3 l-3 -38 -133 -3 -133 -3 3 -72 3 -72 113 -3 112 -3 0 -39 0 -40
-115 0 -115 0 0 -85 0 -85 135 0 135 0 0 -40 0 -40 -190 0 -190 0 0 280 0 280
191 0 190 0 -3 -37z m684 -20 c1 -32 2 -85 3 -118 l0 -60 118 -3 118 -3 -1 83
c-1 46 -1 100 -1 121 l1 38 53 -3 52 -3 3 -225 c2 -124 0 -249 -3 -277 l-6
-53 -49 0 -49 0 -3 118 -3 117 -100 2 c-54 1 -107 -3 -117 -8 -16 -8 -18 -24
-18 -119 l0 -110 -50 0 -50 0 0 280 0 280 50 0 50 0 2 -57z m613 13 c10 -25
40 -113 69 -197 28 -84 56 -154 63 -156 6 -2 14 6 18 19 6 22 37 109 92 263
43 121 37 115 115 115 l68 0 0 -280 0 -280 -56 0 -57 0 5 200 c3 118 1 197 -4
192 -5 -5 -20 -42 -34 -83 -13 -41 -28 -83 -33 -94 -4 -11 -16 -45 -26 -75
-10 -30 -26 -74 -36 -97 -16 -39 -22 -43 -52 -43 -34 0 -35 1 -65 83 -17 45
-45 125 -63 177 -58 175 -60 171 -53 -57 l6 -203 -56 0 -56 0 0 280 0 280 69
0 69 0 17 -44z m827 -83 c83 -233 138 -398 138 -416 0 -14 -9 -17 -48 -17
l-49 0 -19 60 -19 60 -100 0 c-100 0 -100 0 -112 -27 -6 -16 -14 -43 -18 -60
-6 -32 -8 -33 -61 -33 -30 0 -54 2 -54 4 0 2 12 37 26 78 14 40 30 89 35 108
6 19 19 58 29 85 10 28 38 103 60 168 l42 117 52 0 53 0 45 -127z m370 55 c23
-40 52 -89 63 -108 80 -140 111 -190 118 -190 4 0 7 83 7 185 l0 185 55 0 55
0 0 -280 0 -281 -56 3 -56 3 -68 120 c-38 66 -73 125 -77 130 -5 6 -22 34 -39
62 -16 29 -32 53 -36 53 -5 0 -8 -83 -8 -185 l0 -185 -55 0 -55 0 0 280 0 280
55 0 54 0 43 -72z m-5003 -103 c35 -18 41 -32 41 -98 0 -58 -5 -69 -37 -86
-40 -20 -82 -13 -115 19 -28 28 -30 35 -26 81 6 55 28 86 67 92 14 2 30 5 34
6 4 0 21 -6 36 -14z"/>
<path d="M7299 3584 c-40 -26 -49 -48 -56 -133 -8 -110 3 -180 34 -215 20 -24
35 -30 79 -34 60 -5 83 8 111 62 20 39 28 179 14 233 -18 67 -48 95 -107 100
-34 2 -57 -1 -75 -13z"/>
<path d="M10546 3446 c-16 -51 -27 -99 -24 -107 5 -16 118 -20 124 -4 6 15
-49 198 -61 202 -5 1 -23 -39 -39 -91z"/>
</g>
</svg>
